$MeshFormat
2.2 0 8
$EndMeshFormat
$PhysicalNames
5
1 1 "left"
1 2 "right"
1 3 "bottom"
1 4 "top"
2 5 "domain"
$EndPhysicalNames
$Nodes
81
1 0 0 0
2 0.125 0 0
3 0.25 0 0
4 0.375 0 0
5 0.5 0 0
6 0.625 0 0
7 0.75 0 0
8 0.875 0 0
9 1 0 0
10 0 0.125 0
11 0.125 0.125 0
12 0.25 0.125 0
13 0.375 0.125 0
14 0.5 0.125 0
15 0.625 0.125 0
16 0.75 0.125 0
17 0.875 0.125 0
18 1 0.125 0
19 0 0.25 0
20 0.125 0.25 0
21 0.25 0.25 0
22 0.375 0.25 0
23 0.5 0.25 0
24 0.625 0.25 0
25 0.75 0.25 0
26 0.875 0.25 0
27 1 0.25 0
28 0 0.375 0
29 0.125 0.375 0
30 0.25 0.375 0
31 0.375 0.375 0
32 0.5 0.375 0
33 0.625 0.375 0
34 0.75 0.375 0
35 0.875 0.375 0
36 1 0.375 0
37 0 0.5 0
38 0.125 0.5 0
39 0.25 0.5 0
40 0.375 0.5 0
41 0.5 0.5 0
42 0.625 0.5 0
43 0.75 0.5 0
44 0.875 0.5 0
45 1 0.5 0
46 0 0.625 0
47 0.125 0.625 0
48 0.25 0.625 0
49 0.375 0.625 0
50 0.5 0.625 0
51 0.625 0.625 0
52 0.75 0.625 0
53 0.875 0.625 0
54 1 0.625 0
55 0 0.75 0
56 0.125 0.75 0
57 0.25 0.75 0
58 0.375 0.75 0
59 0.5 0.75 0
60 0.625 0.75 0
61 0.75 0.75 0
62 0.875 0.75 0
63 1 0.75 0
64 0 0.875 0
65 0.125 0.875 0
66 0.25 0.875 0
67 0.375 0.875 0
68 0.5 0.875 0
69 0.625 0.875 0
70 0.75 0.875 0
71 0.875 0.875 0
72 1 0.875 0
73 0 1 0
74 0.125 1 0
75 0.25 1 0
76 0.375 1 0
77 0.5 1 0
78 0.625 1 0
79 0.75 1 0
80 0.875 1 0
81 1 1 0
$EndNodes
$Elements
96
1 1 2 1 1 1 10
2 1 2 1 1 10 19
3 1 2 1 1 19 28
4 1 2 1 1 28 37
5 1 2 1 1 37 46
6 1 2 1 1 46 55
7 1 2 1 1 55 64
8 1 2 1 1 64 73
9 1 2 2 2 9 18
10 1 2 2 2 18 27
11 1 2 2 2 27 36
12 1 2 2 2 36 45
13 1 2 2 2 45 54
14 1 2 2 2 54 63
15 1 2 2 2 63 72
16 1 2 2 2 72 81
17 1 2 3 3 1 2
18 1 2 3 3 2 3
19 1 2 3 3 3 4
20 1 2 3 3 4 5
21 1 2 3 3 5 6
22 1 2 3 3 6 7
23 1 2 3 3 7 8
24 1 2 3 3 8 9
25 1 2 4 4 73 74
26 1 2 4 4 74 75
27 1 2 4 4 75 76
28 1 2 4 4 76 77
29 1 2 4 4 77 78
30 1 2 4 4 78 79
31 1 2 4 4 79 80
32 1 2 4 4 80 81
33 3 2 5 5 1 2 11 10
34 3 2 5 5 2 3 12 11
35 3 2 5 5 3 4 13 12
36 3 2 5 5 4 5 14 13
37 3 2 5 5 5 6 15 14
38 3 2 5 5 6 7 16 15
39 3 2 5 5 7 8 17 16
40 3 2 5 5 8 9 18 17
41 3 2 5 5 10 11 20 19
42 3 2 5 5 11 12 21 20
43 3 2 5 5 12 13 22 21
44 3 2 5 5 13 14 23 22
45 3 2 5 5 14 15 24 23
46 3 2 5 5 15 16 25 24
47 3 2 5 5 16 17 26 25
48 3 2 5 5 17 18 27 26
49 3 2 5 5 19 20 29 28
50 3 2 5 5 20 21 30 29
51 3 2 5 5 21 22 31 30
52 3 2 5 5 22 23 32 31
53 3 2 5 5 23 24 33 32
54 3 2 5 5 24 25 34 33
55 3 2 5 5 25 26 35 34
56 3 2 5 5 26 27 36 35
57 3 2 5 5 28 29 38 37
58 3 2 5 5 29 30 39 38
59 3 2 5 5 30 31 40 39
60 3 2 5 5 31 32 41 40
61 3 2 5 5 32 33 42 41
62 3 2 5 5 33 34 43 42
63 3 2 5 5 34 35 44 43
64 3 2 5 5 35 36 45 44
65 3 2 5 5 37 38 47 46
66 3 2 5 5 38 39 48 47
67 3 2 5 5 39 40 49 48
68 3 2 5 5 40 41 50 49
69 3 2 5 5 41 42 51 50
70 3 2 5 5 42 43 52 51
71 3 2 5 5 43 44 53 52
72 3 2 5 5 44 45 54 53
73 3 2 5 5 46 47 56 55
74 3 2 5 5 47 48 57 56
75 3 2 5 5 48 49 58 57
76 3 2 5 5 49 50 59 58
77 3 2 5 5 50 51 60 59
78 3 2 5 5 51 52 61 60
79 3 2 5 5 52 53 62 61
80 3 2 5 5 53 54 63 62
81 3 2 5 5 55 56 65 64
82 3 2 5 5 56 57 66 65
83 3 2 5 5 57 58 67 66
84 3 2 5 5 58 59 68 67
85 3 2 5 5 59 60 69 68
86 3 2 5 5 60 61 70 69
87 3 2 5 5 61 62 71 70
88 3 2 5 5 62 63 72 71
89 3 2 5 5 64 65 74 73
90 3 2 5 5 65 66 75 74
91 3 2 5 5 66 67 76 75
92 3 2 5 5 67 68 77 76
93 3 2 5 5 68 69 78 77
94 3 2 5 5 69 70 79 78
95 3 2 5 5 70 71 80 79
96 3 2 5 5 71 72 81 80
$EndElements
