$MeshFormat
2.2 0 8
$EndMeshFormat
$PhysicalNames
5
1 1 "left"
1 2 "right"
1 3 "bottom"
1 4 "top"
2 5 "domain"
$EndPhysicalNames
$Nodes
289
1 0 0 0
2 0.0625 0 0
3 0.125 0 0
4 0.1875 0 0
5 0.25 0 0
6 0.3125 0 0
7 0.375 0 0
8 0.4375 0 0
9 0.5 0 0
10 0.5625 0 0
11 0.625 0 0
12 0.6875 0 0
13 0.75 0 0
14 0.8125 0 0
15 0.875 0 0
16 0.9375 0 0
17 1 0 0
18 0 0.0625 0
19 0.0625 0.0625 0
20 0.125 0.0625 0
21 0.1875 0.0625 0
22 0.25 0.0625 0
23 0.3125 0.0625 0
24 0.375 0.0625 0
25 0.4375 0.0625 0
26 0.5 0.0625 0
27 0.5625 0.0625 0
28 0.625 0.0625 0
29 0.6875 0.0625 0
30 0.75 0.0625 0
31 0.8125 0.0625 0
32 0.875 0.0625 0
33 0.9375 0.0625 0
34 1 0.0625 0
35 0 0.125 0
36 0.0625 0.125 0
37 0.125 0.125 0
38 0.1875 0.125 0
39 0.25 0.125 0
40 0.3125 0.125 0
41 0.375 0.125 0
42 0.4375 0.125 0
43 0.5 0.125 0
44 0.5625 0.125 0
45 0.625 0.125 0
46 0.6875 0.125 0
47 0.75 0.125 0
48 0.8125 0.125 0
49 0.875 0.125 0
50 0.9375 0.125 0
51 1 0.125 0
52 0 0.1875 0
53 0.0625 0.1875 0
54 0.125 0.1875 0
55 0.1875 0.1875 0
56 0.25 0.1875 0
57 0.3125 0.1875 0
58 0.375 0.1875 0
59 0.4375 0.1875 0
60 0.5 0.1875 0
61 0.5625 0.1875 0
62 0.625 0.1875 0
63 0.6875 0.1875 0
64 0.75 0.1875 0
65 0.8125 0.1875 0
66 0.875 0.1875 0
67 0.9375 0.1875 0
68 1 0.1875 0
69 0 0.25 0
70 0.0625 0.25 0
71 0.125 0.25 0
72 0.1875 0.25 0
73 0.25 0.25 0
74 0.3125 0.25 0
75 0.375 0.25 0
76 0.4375 0.25 0
77 0.5 0.25 0
78 0.5625 0.25 0
79 0.625 0.25 0
80 0.6875 0.25 0
81 0.75 0.25 0
82 0.8125 0.25 0
83 0.875 0.25 0
84 0.9375 0.25 0
85 1 0.25 0
86 0 0.3125 0
87 0.0625 0.3125 0
88 0.125 0.3125 0
89 0.1875 0.3125 0
90 0.25 0.3125 0
91 0.3125 0.3125 0
92 0.375 0.3125 0
93 0.4375 0.3125 0
94 0.5 0.3125 0
95 0.5625 0.3125 0
96 0.625 0.3125 0
97 0.6875 0.3125 0
98 0.75 0.3125 0
99 0.8125 0.3125 0
100 0.875 0.3125 0
101 0.9375 0.3125 0
102 1 0.3125 0
103 0 0.375 0
104 0.0625 0.375 0
105 0.125 0.375 0
106 0.1875 0.375 0
107 0.25 0.375 0
108 0.3125 0.375 0
109 0.375 0.375 0
110 0.4375 0.375 0
111 0.5 0.375 0
112 0.5625 0.375 0
113 0.625 0.375 0
114 0.6875 0.375 0
115 0.75 0.375 0
116 0.8125 0.375 0
117 0.875 0.375 0
118 0.9375 0.375 0
119 1 0.375 0
120 0 0.4375 0
121 0.0625 0.4375 0
122 0.125 0.4375 0
123 0.1875 0.4375 0
124 0.25 0.4375 0
125 0.3125 0.4375 0
126 0.375 0.4375 0
127 0.4375 0.4375 0
128 0.5 0.4375 0
129 0.5625 0.4375 0
130 0.625 0.4375 0
131 0.6875 0.4375 0
132 0.75 0.4375 0
133 0.8125 0.4375 0
134 0.875 0.4375 0
135 0.9375 0.4375 0
136 1 0.4375 0
137 0 0.5 0
138 0.0625 0.5 0
139 0.125 0.5 0
140 0.1875 0.5 0
141 0.25 0.5 0
142 0.3125 0.5 0
143 0.375 0.5 0
144 0.4375 0.5 0
145 0.5 0.5 0
146 0.5625 0.5 0
147 0.625 0.5 0
148 0.6875 0.5 0
149 0.75 0.5 0
150 0.8125 0.5 0
151 0.875 0.5 0
152 0.9375 0.5 0
153 1 0.5 0
154 0 0.5625 0
155 0.0625 0.5625 0
156 0.125 0.5625 0
157 0.1875 0.5625 0
158 0.25 0.5625 0
159 0.3125 0.5625 0
160 0.375 0.5625 0
161 0.4375 0.5625 0
162 0.5 0.5625 0
163 0.5625 0.5625 0
164 0.625 0.5625 0
165 0.6875 0.5625 0
166 0.75 0.5625 0
167 0.8125 0.5625 0
168 0.875 0.5625 0
169 0.9375 0.5625 0
170 1 0.5625 0
171 0 0.625 0
172 0.0625 0.625 0
173 0.125 0.625 0
174 0.1875 0.625 0
175 0.25 0.625 0
176 0.3125 0.625 0
177 0.375 0.625 0
178 0.4375 0.625 0
179 0.5 0.625 0
180 0.5625 0.625 0
181 0.625 0.625 0
182 0.6875 0.625 0
183 0.75 0.625 0
184 0.8125 0.625 0
185 0.875 0.625 0
186 0.9375 0.625 0
187 1 0.625 0
188 0 0.6875 0
189 0.0625 0.6875 0
190 0.125 0.6875 0
191 0.1875 0.6875 0
192 0.25 0.6875 0
193 0.3125 0.6875 0
194 0.375 0.6875 0
195 0.4375 0.6875 0
196 0.5 0.6875 0
197 0.5625 0.6875 0
198 0.625 0.6875 0
199 0.6875 0.6875 0
200 0.75 0.6875 0
201 0.8125 0.6875 0
202 0.875 0.6875 0
203 0.9375 0.6875 0
204 1 0.6875 0
205 0 0.75 0
206 0.0625 0.75 0
207 0.125 0.75 0
208 0.1875 0.75 0
209 0.25 0.75 0
210 0.3125 0.75 0
211 0.375 0.75 0
212 0.4375 0.75 0
213 0.5 0.75 0
214 0.5625 0.75 0
215 0.625 0.75 0
216 0.6875 0.75 0
217 0.75 0.75 0
218 0.8125 0.75 0
219 0.875 0.75 0
220 0.9375 0.75 0
221 1 0.75 0
222 0 0.8125 0
223 0.0625 0.8125 0
224 0.125 0.8125 0
225 0.1875 0.8125 0
226 0.25 0.8125 0
227 0.3125 0.8125 0
228 0.375 0.8125 0
229 0.4375 0.8125 0
230 0.5 0.8125 0
231 0.5625 0.8125 0
232 0.625 0.8125 0
233 0.6875 0.8125 0
234 0.75 0.8125 0
235 0.8125 0.8125 0
236 0.875 0.8125 0
237 0.9375 0.8125 0
238 1 0.8125 0
239 0 0.875 0
240 0.0625 0.875 0
241 0.125 0.875 0
242 0.1875 0.875 0
243 0.25 0.875 0
244 0.3125 0.875 0
245 0.375 0.875 0
246 0.4375 0.875 0
247 0.5 0.875 0
248 0.5625 0.875 0
249 0.625 0.875 0
250 0.6875 0.875 0
251 0.75 0.875 0
252 0.8125 0.875 0
253 0.875 0.875 0
254 0.9375 0.875 0
255 1 0.875 0
256 0 0.9375 0
257 0.0625 0.9375 0
258 0.125 0.9375 0
259 0.1875 0.9375 0
260 0.25 0.9375 0
261 0.3125 0.9375 0
262 0.375 0.9375 0
263 0.4375 0.9375 0
264 0.5 0.9375 0
265 0.5625 0.9375 0
266 0.625 0.9375 0
267 0.6875 0.9375 0
268 0.75 0.9375 0
269 0.8125 0.9375 0
270 0.875 0.9375 0
271 0.9375 0.9375 0
272 1 0.9375 0
273 0 1 0
274 0.0625 1 0
275 0.125 1 0
276 0.1875 1 0
277 0.25 1 0
278 0.3125 1 0
279 0.375 1 0
280 0.4375 1 0
281 0.5 1 0
282 0.5625 1 0
283 0.625 1 0
284 0.6875 1 0
285 0.75 1 0
286 0.8125 1 0
287 0.875 1 0
288 0.9375 1 0
289 1 1 0
$EndNodes
$Elements
320
1 1 2 1 1 1 18
2 1 2 1 1 18 35
3 1 2 1 1 35 52
4 1 2 1 1 52 69
5 1 2 1 1 69 86
6 1 2 1 1 86 103
7 1 2 1 1 103 120
8 1 2 1 1 120 137
9 1 2 1 1 137 154
10 1 2 1 1 154 171
11 1 2 1 1 171 188
12 1 2 1 1 188 205
13 1 2 1 1 205 222
14 1 2 1 1 222 239
15 1 2 1 1 239 256
16 1 2 1 1 256 273
17 1 2 2 2 17 34
18 1 2 2 2 34 51
19 1 2 2 2 51 68
20 1 2 2 2 68 85
21 1 2 2 2 85 102
22 1 2 2 2 102 119
23 1 2 2 2 119 136
24 1 2 2 2 136 153
25 1 2 2 2 153 170
26 1 2 2 2 170 187
27 1 2 2 2 187 204
28 1 2 2 2 204 221
29 1 2 2 2 221 238
30 1 2 2 2 238 255
31 1 2 2 2 255 272
32 1 2 2 2 272 289
33 1 2 3 3 1 2
34 1 2 3 3 2 3
35 1 2 3 3 3 4
36 1 2 3 3 4 5
37 1 2 3 3 5 6
38 1 2 3 3 6 7
39 1 2 3 3 7 8
40 1 2 3 3 8 9
41 1 2 3 3 9 10
42 1 2 3 3 10 11
43 1 2 3 3 11 12
44 1 2 3 3 12 13
45 1 2 3 3 13 14
46 1 2 3 3 14 15
47 1 2 3 3 15 16
48 1 2 3 3 16 17
49 1 2 4 4 273 274
50 1 2 4 4 274 275
51 1 2 4 4 275 276
52 1 2 4 4 276 277
53 1 2 4 4 277 278
54 1 2 4 4 278 279
55 1 2 4 4 279 280
56 1 2 4 4 280 281
57 1 2 4 4 281 282
58 1 2 4 4 282 283
59 1 2 4 4 283 284
60 1 2 4 4 284 285
61 1 2 4 4 285 286
62 1 2 4 4 286 287
63 1 2 4 4 287 288
64 1 2 4 4 288 289
65 3 2 5 5 1 2 19 18
66 3 2 5 5 2 3 20 19
67 3 2 5 5 3 4 21 20
68 3 2 5 5 4 5 22 21
69 3 2 5 5 5 6 23 22
70 3 2 5 5 6 7 24 23
71 3 2 5 5 7 8 25 24
72 3 2 5 5 8 9 26 25
73 3 2 5 5 9 10 27 26
74 3 2 5 5 10 11 28 27
75 3 2 5 5 11 12 29 28
76 3 2 5 5 12 13 30 29
77 3 2 5 5 13 14 31 30
78 3 2 5 5 14 15 32 31
79 3 2 5 5 15 16 33 32
80 3 2 5 5 16 17 34 33
81 3 2 5 5 18 19 36 35
82 3 2 5 5 19 20 37 36
83 3 2 5 5 20 21 38 37
84 3 2 5 5 21 22 39 38
85 3 2 5 5 22 23 40 39
86 3 2 5 5 23 24 41 40
87 3 2 5 5 24 25 42 41
88 3 2 5 5 25 26 43 42
89 3 2 5 5 26 27 44 43
90 3 2 5 5 27 28 45 44
91 3 2 5 5 28 29 46 45
92 3 2 5 5 29 30 47 46
93 3 2 5 5 30 31 48 47
94 3 2 5 5 31 32 49 48
95 3 2 5 5 32 33 50 49
96 3 2 5 5 33 34 51 50
97 3 2 5 5 35 36 53 52
98 3 2 5 5 36 37 54 53
99 3 2 5 5 37 38 55 54
100 3 2 5 5 38 39 56 55
101 3 2 5 5 39 40 57 56
102 3 2 5 5 40 41 58 57
103 3 2 5 5 41 42 59 58
104 3 2 5 5 42 43 60 59
105 3 2 5 5 43 44 61 60
106 3 2 5 5 44 45 62 61
107 3 2 5 5 45 46 63 62
108 3 2 5 5 46 47 64 63
109 3 2 5 5 47 48 65 64
110 3 2 5 5 48 49 66 65
111 3 2 5 5 49 50 67 66
112 3 2 5 5 50 51 68 67
113 3 2 5 5 52 53 70 69
114 3 2 5 5 53 54 71 70
115 3 2 5 5 54 55 72 71
116 3 2 5 5 55 56 73 72
117 3 2 5 5 56 57 74 73
118 3 2 5 5 57 58 75 74
119 3 2 5 5 58 59 76 75
120 3 2 5 5 59 60 77 76
121 3 2 5 5 60 61 78 77
122 3 2 5 5 61 62 79 78
123 3 2 5 5 62 63 80 79
124 3 2 5 5 63 64 81 80
125 3 2 5 5 64 65 82 81
126 3 2 5 5 65 66 83 82
127 3 2 5 5 66 67 84 83
128 3 2 5 5 67 68 85 84
129 3 2 5 5 69 70 87 86
130 3 2 5 5 70 71 88 87
131 3 2 5 5 71 72 89 88
132 3 2 5 5 72 73 90 89
133 3 2 5 5 73 74 91 90
134 3 2 5 5 74 75 92 91
135 3 2 5 5 75 76 93 92
136 3 2 5 5 76 77 94 93
137 3 2 5 5 77 78 95 94
138 3 2 5 5 78 79 96 95
139 3 2 5 5 79 80 97 96
140 3 2 5 5 80 81 98 97
141 3 2 5 5 81 82 99 98
142 3 2 5 5 82 83 100 99
143 3 2 5 5 83 84 101 100
144 3 2 5 5 84 85 102 101
145 3 2 5 5 86 87 104 103
146 3 2 5 5 87 88 105 104
147 3 2 5 5 88 89 106 105
148 3 2 5 5 89 90 107 106
149 3 2 5 5 90 91 108 107
150 3 2 5 5 91 92 109 108
151 3 2 5 5 92 93 110 109
152 3 2 5 5 93 94 111 110
153 3 2 5 5 94 95 112 111
154 3 2 5 5 95 96 113 112
155 3 2 5 5 96 97 114 113
156 3 2 5 5 97 98 115 114
157 3 2 5 5 98 99 116 115
158 3 2 5 5 99 100 117 116
159 3 2 5 5 100 101 118 117
160 3 2 5 5 101 102 119 118
161 3 2 5 5 103 104 121 120
162 3 2 5 5 104 105 122 121
163 3 2 5 5 105 106 123 122
164 3 2 5 5 106 107 124 123
165 3 2 5 5 107 108 125 124
166 3 2 5 5 108 109 126 125
167 3 2 5 5 109 110 127 126
168 3 2 5 5 110 111 128 127
169 3 2 5 5 111 112 129 128
170 3 2 5 5 112 113 130 129
171 3 2 5 5 113 114 131 130
172 3 2 5 5 114 115 132 131
173 3 2 5 5 115 116 133 132
174 3 2 5 5 116 117 134 133
175 3 2 5 5 117 118 135 134
176 3 2 5 5 118 119 136 135
177 3 2 5 5 120 121 138 137
178 3 2 5 5 121 122 139 138
179 3 2 5 5 122 123 140 139
180 3 2 5 5 123 124 141 140
181 3 2 5 5 124 125 142 141
182 3 2 5 5 125 126 143 142
183 3 2 5 5 126 127 144 143
184 3 2 5 5 127 128 145 144
185 3 2 5 5 128 129 146 145
186 3 2 5 5 129 130 147 146
187 3 2 5 5 130 131 148 147
188 3 2 5 5 131 132 149 148
189 3 2 5 5 132 133 150 149
190 3 2 5 5 133 134 151 150
191 3 2 5 5 134 135 152 151
192 3 2 5 5 135 136 153 152
193 3 2 5 5 137 138 155 154
194 3 2 5 5 138 139 156 155
195 3 2 5 5 139 140 157 156
196 3 2 5 5 140 141 158 157
197 3 2 5 5 141 142 159 158
198 3 2 5 5 142 143 160 159
199 3 2 5 5 143 144 161 160
200 3 2 5 5 144 145 162 161
201 3 2 5 5 145 146 163 162
202 3 2 5 5 146 147 164 163
203 3 2 5 5 147 148 165 164
204 3 2 5 5 148 149 166 165
205 3 2 5 5 149 150 167 166
206 3 2 5 5 150 151 168 167
207 3 2 5 5 151 152 169 168
208 3 2 5 5 152 153 170 169
209 3 2 5 5 154 155 172 171
210 3 2 5 5 155 156 173 172
211 3 2 5 5 156 157 174 173
212 3 2 5 5 157 158 175 174
213 3 2 5 5 158 159 176 175
214 3 2 5 5 159 160 177 176
215 3 2 5 5 160 161 178 177
216 3 2 5 5 161 162 179 178
217 3 2 5 5 162 163 180 179
218 3 2 5 5 163 164 181 180
219 3 2 5 5 164 165 182 181
220 3 2 5 5 165 166 183 182
221 3 2 5 5 166 167 184 183
222 3 2 5 5 167 168 185 184
223 3 2 5 5 168 169 186 185
224 3 2 5 5 169 170 187 186
225 3 2 5 5 171 172 189 188
226 3 2 5 5 172 173 190 189
227 3 2 5 5 173 174 191 190
228 3 2 5 5 174 175 192 191
229 3 2 5 5 175 176 193 192
230 3 2 5 5 176 177 194 193
231 3 2 5 5 177 178 195 194
232 3 2 5 5 178 179 196 195
233 3 2 5 5 179 180 197 196
234 3 2 5 5 180 181 198 197
235 3 2 5 5 181 182 199 198
236 3 2 5 5 182 183 200 199
237 3 2 5 5 183 184 201 200
238 3 2 5 5 184 185 202 201
239 3 2 5 5 185 186 203 202
240 3 2 5 5 186 187 204 203
241 3 2 5 5 188 189 206 205
242 3 2 5 5 189 190 207 206
243 3 2 5 5 190 191 208 207
244 3 2 5 5 191 192 209 208
245 3 2 5 5 192 193 210 209
246 3 2 5 5 193 194 211 210
247 3 2 5 5 194 195 212 211
248 3 2 5 5 195 196 213 212
249 3 2 5 5 196 197 214 213
250 3 2 5 5 197 198 215 214
251 3 2 5 5 198 199 216 215
252 3 2 5 5 199 200 217 216
253 3 2 5 5 200 201 218 217
254 3 2 5 5 201 202 219 218
255 3 2 5 5 202 203 220 219
256 3 2 5 5 203 204 221 220
257 3 2 5 5 205 206 223 222
258 3 2 5 5 206 207 224 223
259 3 2 5 5 207 208 225 224
260 3 2 5 5 208 209 226 225
261 3 2 5 5 209 210 227 226
262 3 2 5 5 210 211 228 227
263 3 2 5 5 211 212 229 228
264 3 2 5 5 212 213 230 229
265 3 2 5 5 213 214 231 230
266 3 2 5 5 214 215 232 231
267 3 2 5 5 215 216 233 232
268 3 2 5 5 216 217 234 233
269 3 2 5 5 217 218 235 234
270 3 2 5 5 218 219 236 235
271 3 2 5 5 219 220 237 236
272 3 2 5 5 220 221 238 237
273 3 2 5 5 222 223 240 239
274 3 2 5 5 223 224 241 240
275 3 2 5 5 224 225 242 241
276 3 2 5 5 225 226 243 242
277 3 2 5 5 226 227 244 243
278 3 2 5 5 227 228 245 244
279 3 2 5 5 228 229 246 245
280 3 2 5 5 229 230 247 246
281 3 2 5 5 230 231 248 247
282 3 2 5 5 231 232 249 248
283 3 2 5 5 232 233 250 249
284 3 2 5 5 233 234 251 250
285 3 2 5 5 234 235 252 251
286 3 2 5 5 235 236 253 252
287 3 2 5 5 236 237 254 253
288 3 2 5 5 237 238 255 254
289 3 2 5 5 239 240 257 256
290 3 2 5 5 240 241 258 257
291 3 2 5 5 241 242 259 258
292 3 2 5 5 242 243 260 259
293 3 2 5 5 243 244 261 260
294 3 2 5 5 244 245 262 261
295 3 2 5 5 245 246 263 262
296 3 2 5 5 246 247 264 263
297 3 2 5 5 247 248 265 264
298 3 2 5 5 248 249 266 265
299 3 2 5 5 249 250 267 266
300 3 2 5 5 250 251 268 267
301 3 2 5 5 251 252 269 268
302 3 2 5 5 252 253 270 269
303 3 2 5 5 253 254 271 270
304 3 2 5 5 254 255 272 271
305 3 2 5 5 256 257 274 273
306 3 2 5 5 257 258 275 274
307 3 2 5 5 258 259 276 275
308 3 2 5 5 259 260 277 276
309 3 2 5 5 260 261 278 277
310 3 2 5 5 261 262 279 278
311 3 2 5 5 262 263 280 279
312 3 2 5 5 263 264 281 280
313 3 2 5 5 264 265 282 281
314 3 2 5 5 265 266 283 282
315 3 2 5 5 266 267 284 283
316 3 2 5 5 267 268 285 284
317 3 2 5 5 268 269 286 285
318 3 2 5 5 269 270 287 286
319 3 2 5 5 270 271 288 287
320 3 2 5 5 271 272 289 288
$EndElements
