$MeshFormat
2.2 0 8
$EndMeshFormat
$PhysicalNames
5
1 1 "left"
1 2 "right"
1 3 "bottom"
1 4 "top"
2 5 "domain"
$EndPhysicalNames
$Nodes
1089
1 0 0 0
2 0.03125 0 0
3 0.0625 0 0
4 0.09375 0 0
5 0.125 0 0
6 0.15625 0 0
7 0.1875 0 0
8 0.21875 0 0
9 0.25 0 0
10 0.28125 0 0
11 0.3125 0 0
12 0.34375 0 0
13 0.375 0 0
14 0.40625 0 0
15 0.4375 0 0
16 0.46875 0 0
17 0.5 0 0
18 0.53125 0 0
19 0.5625 0 0
20 0.59375 0 0
21 0.625 0 0
22 0.65625 0 0
23 0.6875 0 0
24 0.71875 0 0
25 0.75 0 0
26 0.78125 0 0
27 0.8125 0 0
28 0.84375 0 0
29 0.875 0 0
30 0.90625 0 0
31 0.9375 0 0
32 0.96875 0 0
33 1 0 0
34 0 0.03125 0
35 0.03125 0.03125 0
36 0.0625 0.03125 0
37 0.09375 0.03125 0
38 0.125 0.03125 0
39 0.15625 0.03125 0
40 0.1875 0.03125 0
41 0.21875 0.03125 0
42 0.25 0.03125 0
43 0.28125 0.03125 0
44 0.3125 0.03125 0
45 0.34375 0.03125 0
46 0.375 0.03125 0
47 0.40625 0.03125 0
48 0.4375 0.03125 0
49 0.46875 0.03125 0
50 0.5 0.03125 0
51 0.53125 0.03125 0
52 0.5625 0.03125 0
53 0.59375 0.03125 0
54 0.625 0.03125 0
55 0.65625 0.03125 0
56 0.6875 0.03125 0
57 0.71875 0.03125 0
58 0.75 0.03125 0
59 0.78125 0.03125 0
60 0.8125 0.03125 0
61 0.84375 0.03125 0
62 0.875 0.03125 0
63 0.90625 0.03125 0
64 0.9375 0.03125 0
65 0.96875 0.03125 0
66 1 0.03125 0
67 0 0.0625 0
68 0.03125 0.0625 0
69 0.0625 0.0625 0
70 0.09375 0.0625 0
71 0.125 0.0625 0
72 0.15625 0.0625 0
73 0.1875 0.0625 0
74 0.21875 0.0625 0
75 0.25 0.0625 0
76 0.28125 0.0625 0
77 0.3125 0.0625 0
78 0.34375 0.0625 0
79 0.375 0.0625 0
80 0.40625 0.0625 0
81 0.4375 0.0625 0
82 0.46875 0.0625 0
83 0.5 0.0625 0
84 0.53125 0.0625 0
85 0.5625 0.0625 0
86 0.59375 0.0625 0
87 0.625 0.0625 0
88 0.65625 0.0625 0
89 0.6875 0.0625 0
90 0.71875 0.0625 0
91 0.75 0.0625 0
92 0.78125 0.0625 0
93 0.8125 0.0625 0
94 0.84375 0.0625 0
95 0.875 0.0625 0
96 0.90625 0.0625 0
97 0.9375 0.0625 0
98 0.96875 0.0625 0
99 1 0.0625 0
100 0 0.09375 0
101 0.03125 0.09375 0
102 0.0625 0.09375 0
103 0.09375 0.09375 0
104 0.125 0.09375 0
105 0.15625 0.09375 0
106 0.1875 0.09375 0
107 0.21875 0.09375 0
108 0.25 0.09375 0
109 0.28125 0.09375 0
110 0.3125 0.09375 0
111 0.34375 0.09375 0
112 0.375 0.09375 0
113 0.40625 0.09375 0
114 0.4375 0.09375 0
115 0.46875 0.09375 0
116 0.5 0.09375 0
117 0.53125 0.09375 0
118 0.5625 0.09375 0
119 0.59375 0.09375 0
120 0.625 0.09375 0
121 0.65625 0.09375 0
122 0.6875 0.09375 0
123 0.71875 0.09375 0
124 0.75 0.09375 0
125 0.78125 0.09375 0
126 0.8125 0.09375 0
127 0.84375 0.09375 0
128 0.875 0.09375 0
129 0.90625 0.09375 0
130 0.9375 0.09375 0
131 0.96875 0.09375 0
132 1 0.09375 0
133 0 0.125 0
134 0.03125 0.125 0
135 0.0625 0.125 0
136 0.09375 0.125 0
137 0.125 0.125 0
138 0.15625 0.125 0
139 0.1875 0.125 0
140 0.21875 0.125 0
141 0.25 0.125 0
142 0.28125 0.125 0
143 0.3125 0.125 0
144 0.34375 0.125 0
145 0.375 0.125 0
146 0.40625 0.125 0
147 0.4375 0.125 0
148 0.46875 0.125 0
149 0.5 0.125 0
150 0.53125 0.125 0
151 0.5625 0.125 0
152 0.59375 0.125 0
153 0.625 0.125 0
154 0.65625 0.125 0
155 0.6875 0.125 0
156 0.71875 0.125 0
157 0.75 0.125 0
158 0.78125 0.125 0
159 0.8125 0.125 0
160 0.84375 0.125 0
161 0.875 0.125 0
162 0.90625 0.125 0
163 0.9375 0.125 0
164 0.96875 0.125 0
165 1 0.125 0
166 0 0.15625 0
167 0.03125 0.15625 0
168 0.0625 0.15625 0
169 0.09375 0.15625 0
170 0.125 0.15625 0
171 0.15625 0.15625 0
172 0.1875 0.15625 0
173 0.21875 0.15625 0
174 0.25 0.15625 0
175 0.28125 0.15625 0
176 0.3125 0.15625 0
177 0.34375 0.15625 0
178 0.375 0.15625 0
179 0.40625 0.15625 0
180 0.4375 0.15625 0
181 0.46875 0.15625 0
182 0.5 0.15625 0
183 0.53125 0.15625 0
184 0.5625 0.15625 0
185 0.59375 0.15625 0
186 0.625 0.15625 0
187 0.65625 0.15625 0
188 0.6875 0.15625 0
189 0.71875 0.15625 0
190 0.75 0.15625 0
191 0.78125 0.15625 0
192 0.8125 0.15625 0
193 0.84375 0.15625 0
194 0.875 0.15625 0
195 0.90625 0.15625 0
196 0.9375 0.15625 0
197 0.96875 0.15625 0
198 1 0.15625 0
199 0 0.1875 0
200 0.03125 0.1875 0
201 0.0625 0.1875 0
202 0.09375 0.1875 0
203 0.125 0.1875 0
204 0.15625 0.1875 0
205 0.1875 0.1875 0
206 0.21875 0.1875 0
207 0.25 0.1875 0
208 0.28125 0.1875 0
209 0.3125 0.1875 0
210 0.34375 0.1875 0
211 0.375 0.1875 0
212 0.40625 0.1875 0
213 0.4375 0.1875 0
214 0.46875 0.1875 0
215 0.5 0.1875 0
216 0.53125 0.1875 0
217 0.5625 0.1875 0
218 0.59375 0.1875 0
219 0.625 0.1875 0
220 0.65625 0.1875 0
221 0.6875 0.1875 0
222 0.71875 0.1875 0
223 0.75 0.1875 0
224 0.78125 0.1875 0
225 0.8125 0.1875 0
226 0.84375 0.1875 0
227 0.875 0.1875 0
228 0.90625 0.1875 0
229 0.9375 0.1875 0
230 0.96875 0.1875 0
231 1 0.1875 0
232 0 0.21875 0
233 0.03125 0.21875 0
234 0.0625 0.21875 0
235 0.09375 0.21875 0
236 0.125 0.21875 0
237 0.15625 0.21875 0
238 0.1875 0.21875 0
239 0.21875 0.21875 0
240 0.25 0.21875 0
241 0.28125 0.21875 0
242 0.3125 0.21875 0
243 0.34375 0.21875 0
244 0.375 0.21875 0
245 0.40625 0.21875 0
246 0.4375 0.21875 0
247 0.46875 0.21875 0
248 0.5 0.21875 0
249 0.53125 0.21875 0
250 0.5625 0.21875 0
251 0.59375 0.21875 0
252 0.625 0.21875 0
253 0.65625 0.21875 0
254 0.6875 0.21875 0
255 0.71875 0.21875 0
256 0.75 0.21875 0
257 0.78125 0.21875 0
258 0.8125 0.21875 0
259 0.84375 0.21875 0
260 0.875 0.21875 0
261 0.90625 0.21875 0
262 0.9375 0.21875 0
263 0.96875 0.21875 0
264 1 0.21875 0
265 0 0.25 0
266 0.03125 0.25 0
267 0.0625 0.25 0
268 0.09375 0.25 0
269 0.125 0.25 0
270 0.15625 0.25 0
271 0.1875 0.25 0
272 0.21875 0.25 0
273 0.25 0.25 0
274 0.28125 0.25 0
275 0.3125 0.25 0
276 0.34375 0.25 0
277 0.375 0.25 0
278 0.40625 0.25 0
279 0.4375 0.25 0
280 0.46875 0.25 0
281 0.5 0.25 0
282 0.53125 0.25 0
283 0.5625 0.25 0
284 0.59375 0.25 0
285 0.625 0.25 0
286 0.65625 0.25 0
287 0.6875 0.25 0
288 0.71875 0.25 0
289 0.75 0.25 0
290 0.78125 0.25 0
291 0.8125 0.25 0
292 0.84375 0.25 0
293 0.875 0.25 0
294 0.90625 0.25 0
295 0.9375 0.25 0
296 0.96875 0.25 0
297 1 0.25 0
298 0 0.28125 0
299 0.03125 0.28125 0
300 0.0625 0.28125 0
301 0.09375 0.28125 0
302 0.125 0.28125 0
303 0.15625 0.28125 0
304 0.1875 0.28125 0
305 0.21875 0.28125 0
306 0.25 0.28125 0
307 0.28125 0.28125 0
308 0.3125 0.28125 0
309 0.34375 0.28125 0
310 0.375 0.28125 0
311 0.40625 0.28125 0
312 0.4375 0.28125 0
313 0.46875 0.28125 0
314 0.5 0.28125 0
315 0.53125 0.28125 0
316 0.5625 0.28125 0
317 0.59375 0.28125 0
318 0.625 0.28125 0
319 0.65625 0.28125 0
320 0.6875 0.28125 0
321 0.71875 0.28125 0
322 0.75 0.28125 0
323 0.78125 0.28125 0
324 0.8125 0.28125 0
325 0.84375 0.28125 0
326 0.875 0.28125 0
327 0.90625 0.28125 0
328 0.9375 0.28125 0
329 0.96875 0.28125 0
330 1 0.28125 0
331 0 0.3125 0
332 0.03125 0.3125 0
333 0.0625 0.3125 0
334 0.09375 0.3125 0
335 0.125 0.3125 0
336 0.15625 0.3125 0
337 0.1875 0.3125 0
338 0.21875 0.3125 0
339 0.25 0.3125 0
340 0.28125 0.3125 0
341 0.3125 0.3125 0
342 0.34375 0.3125 0
343 0.375 0.3125 0
344 0.40625 0.3125 0
345 0.4375 0.3125 0
346 0.46875 0.3125 0
347 0.5 0.3125 0
348 0.53125 0.3125 0
349 0.5625 0.3125 0
350 0.59375 0.3125 0
351 0.625 0.3125 0
352 0.65625 0.3125 0
353 0.6875 0.3125 0
354 0.71875 0.3125 0
355 0.75 0.3125 0
356 0.78125 0.3125 0
357 0.8125 0.3125 0
358 0.84375 0.3125 0
359 0.875 0.3125 0
360 0.90625 0.3125 0
361 0.9375 0.3125 0
362 0.96875 0.3125 0
363 1 0.3125 0
364 0 0.34375 0
365 0.03125 0.34375 0
366 0.0625 0.34375 0
367 0.09375 0.34375 0
368 0.125 0.34375 0
369 0.15625 0.34375 0
370 0.1875 0.34375 0
371 0.21875 0.34375 0
372 0.25 0.34375 0
373 0.28125 0.34375 0
374 0.3125 0.34375 0
375 0.34375 0.34375 0
376 0.375 0.34375 0
377 0.40625 0.34375 0
378 0.4375 0.34375 0
379 0.46875 0.34375 0
380 0.5 0.34375 0
381 0.53125 0.34375 0
382 0.5625 0.34375 0
383 0.59375 0.34375 0
384 0.625 0.34375 0
385 0.65625 0.34375 0
386 0.6875 0.34375 0
387 0.71875 0.34375 0
388 0.75 0.34375 0
389 0.78125 0.34375 0
390 0.8125 0.34375 0
391 0.84375 0.34375 0
392 0.875 0.34375 0
393 0.90625 0.34375 0
394 0.9375 0.34375 0
395 0.96875 0.34375 0
396 1 0.34375 0
397 0 0.375 0
398 0.03125 0.375 0
399 0.0625 0.375 0
400 0.09375 0.375 0
401 0.125 0.375 0
402 0.15625 0.375 0
403 0.1875 0.375 0
404 0.21875 0.375 0
405 0.25 0.375 0
406 0.28125 0.375 0
407 0.3125 0.375 0
408 0.34375 0.375 0
409 0.375 0.375 0
410 0.40625 0.375 0
411 0.4375 0.375 0
412 0.46875 0.375 0
413 0.5 0.375 0
414 0.53125 0.375 0
415 0.5625 0.375 0
416 0.59375 0.375 0
417 0.625 0.375 0
418 0.65625 0.375 0
419 0.6875 0.375 0
420 0.71875 0.375 0
421 0.75 0.375 0
422 0.78125 0.375 0
423 0.8125 0.375 0
424 0.84375 0.375 0
425 0.875 0.375 0
426 0.90625 0.375 0
427 0.9375 0.375 0
428 0.96875 0.375 0
429 1 0.375 0
430 0 0.40625 0
431 0.03125 0.40625 0
432 0.0625 0.40625 0
433 0.09375 0.40625 0
434 0.125 0.40625 0
435 0.15625 0.40625 0
436 0.1875 0.40625 0
437 0.21875 0.40625 0
438 0.25 0.40625 0
439 0.28125 0.40625 0
440 0.3125 0.40625 0
441 0.34375 0.40625 0
442 0.375 0.40625 0
443 0.40625 0.40625 0
444 0.4375 0.40625 0
445 0.46875 0.40625 0
446 0.5 0.40625 0
447 0.53125 0.40625 0
448 0.5625 0.40625 0
449 0.59375 0.40625 0
450 0.625 0.40625 0
451 0.65625 0.40625 0
452 0.6875 0.40625 0
453 0.71875 0.40625 0
454 0.75 0.40625 0
455 0.78125 0.40625 0
456 0.8125 0.40625 0
457 0.84375 0.40625 0
458 0.875 0.40625 0
459 0.90625 0.40625 0
460 0.9375 0.40625 0
461 0.96875 0.40625 0
462 1 0.40625 0
463 0 0.4375 0
464 0.03125 0.4375 0
465 0.0625 0.4375 0
466 0.09375 0.4375 0
467 0.125 0.4375 0
468 0.15625 0.4375 0
469 0.1875 0.4375 0
470 0.21875 0.4375 0
471 0.25 0.4375 0
472 0.28125 0.4375 0
473 0.3125 0.4375 0
474 0.34375 0.4375 0
475 0.375 0.4375 0
476 0.40625 0.4375 0
477 0.4375 0.4375 0
478 0.46875 0.4375 0
479 0.5 0.4375 0
480 0.53125 0.4375 0
481 0.5625 0.4375 0
482 0.59375 0.4375 0
483 0.625 0.4375 0
484 0.65625 0.4375 0
485 0.6875 0.4375 0
486 0.71875 0.4375 0
487 0.75 0.4375 0
488 0.78125 0.4375 0
489 0.8125 0.4375 0
490 0.84375 0.4375 0
491 0.875 0.4375 0
492 0.90625 0.4375 0
493 0.9375 0.4375 0
494 0.96875 0.4375 0
495 1 0.4375 0
496 0 0.46875 0
497 0.03125 0.46875 0
498 0.0625 0.46875 0
499 0.09375 0.46875 0
500 0.125 0.46875 0
501 0.15625 0.46875 0
502 0.1875 0.46875 0
503 0.21875 0.46875 0
504 0.25 0.46875 0
505 0.28125 0.46875 0
506 0.3125 0.46875 0
507 0.34375 0.46875 0
508 0.375 0.46875 0
509 0.40625 0.46875 0
510 0.4375 0.46875 0
511 0.46875 0.46875 0
512 0.5 0.46875 0
513 0.53125 0.46875 0
514 0.5625 0.46875 0
515 0.59375 0.46875 0
516 0.625 0.46875 0
517 0.65625 0.46875 0
518 0.6875 0.46875 0
519 0.71875 0.46875 0
520 0.75 0.46875 0
521 0.78125 0.46875 0
522 0.8125 0.46875 0
523 0.84375 0.46875 0
524 0.875 0.46875 0
525 0.90625 0.46875 0
526 0.9375 0.46875 0
527 0.96875 0.46875 0
528 1 0.46875 0
529 0 0.5 0
530 0.03125 0.5 0
531 0.0625 0.5 0
532 0.09375 0.5 0
533 0.125 0.5 0
534 0.15625 0.5 0
535 0.1875 0.5 0
536 0.21875 0.5 0
537 0.25 0.5 0
538 0.28125 0.5 0
539 0.3125 0.5 0
540 0.34375 0.5 0
541 0.375 0.5 0
542 0.40625 0.5 0
543 0.4375 0.5 0
544 0.46875 0.5 0
545 0.5 0.5 0
546 0.53125 0.5 0
547 0.5625 0.5 0
548 0.59375 0.5 0
549 0.625 0.5 0
550 0.65625 0.5 0
551 0.6875 0.5 0
552 0.71875 0.5 0
553 0.75 0.5 0
554 0.78125 0.5 0
555 0.8125 0.5 0
556 0.84375 0.5 0
557 0.875 0.5 0
558 0.90625 0.5 0
559 0.9375 0.5 0
560 0.96875 0.5 0
561 1 0.5 0
562 0 0.53125 0
563 0.03125 0.53125 0
564 0.0625 0.53125 0
565 0.09375 0.53125 0
566 0.125 0.53125 0
567 0.15625 0.53125 0
568 0.1875 0.53125 0
569 0.21875 0.53125 0
570 0.25 0.53125 0
571 0.28125 0.53125 0
572 0.3125 0.53125 0
573 0.34375 0.53125 0
574 0.375 0.53125 0
575 0.40625 0.53125 0
576 0.4375 0.53125 0
577 0.46875 0.53125 0
578 0.5 0.53125 0
579 0.53125 0.53125 0
580 0.5625 0.53125 0
581 0.59375 0.53125 0
582 0.625 0.53125 0
583 0.65625 0.53125 0
584 0.6875 0.53125 0
585 0.71875 0.53125 0
586 0.75 0.53125 0
587 0.78125 0.53125 0
588 0.8125 0.53125 0
589 0.84375 0.53125 0
590 0.875 0.53125 0
591 0.90625 0.53125 0
592 0.9375 0.53125 0
593 0.96875 0.53125 0
594 1 0.53125 0
595 0 0.5625 0
596 0.03125 0.5625 0
597 0.0625 0.5625 0
598 0.09375 0.5625 0
599 0.125 0.5625 0
600 0.15625 0.5625 0
601 0.1875 0.5625 0
602 0.21875 0.5625 0
603 0.25 0.5625 0
604 0.28125 0.5625 0
605 0.3125 0.5625 0
606 0.34375 0.5625 0
607 0.375 0.5625 0
608 0.40625 0.5625 0
609 0.4375 0.5625 0
610 0.46875 0.5625 0
611 0.5 0.5625 0
612 0.53125 0.5625 0
613 0.5625 0.5625 0
614 0.59375 0.5625 0
615 0.625 0.5625 0
616 0.65625 0.5625 0
617 0.6875 0.5625 0
618 0.71875 0.5625 0
619 0.75 0.5625 0
620 0.78125 0.5625 0
621 0.8125 0.5625 0
622 0.84375 0.5625 0
623 0.875 0.5625 0
624 0.90625 0.5625 0
625 0.9375 0.5625 0
626 0.96875 0.5625 0
627 1 0.5625 0
628 0 0.59375 0
629 0.03125 0.59375 0
630 0.0625 0.59375 0
631 0.09375 0.59375 0
632 0.125 0.59375 0
633 0.15625 0.59375 0
634 0.1875 0.59375 0
635 0.21875 0.59375 0
636 0.25 0.59375 0
637 0.28125 0.59375 0
638 0.3125 0.59375 0
639 0.34375 0.59375 0
640 0.375 0.59375 0
641 0.40625 0.59375 0
642 0.4375 0.59375 0
643 0.46875 0.59375 0
644 0.5 0.59375 0
645 0.53125 0.59375 0
646 0.5625 0.59375 0
647 0.59375 0.59375 0
648 0.625 0.59375 0
649 0.65625 0.59375 0
650 0.6875 0.59375 0
651 0.71875 0.59375 0
652 0.75 0.59375 0
653 0.78125 0.59375 0
654 0.8125 0.59375 0
655 0.84375 0.59375 0
656 0.875 0.59375 0
657 0.90625 0.59375 0
658 0.9375 0.59375 0
659 0.96875 0.59375 0
660 1 0.59375 0
661 0 0.625 0
662 0.03125 0.625 0
663 0.0625 0.625 0
664 0.09375 0.625 0
665 0.125 0.625 0
666 0.15625 0.625 0
667 0.1875 0.625 0
668 0.21875 0.625 0
669 0.25 0.625 0
670 0.28125 0.625 0
671 0.3125 0.625 0
672 0.34375 0.625 0
673 0.375 0.625 0
674 0.40625 0.625 0
675 0.4375 0.625 0
676 0.46875 0.625 0
677 0.5 0.625 0
678 0.53125 0.625 0
679 0.5625 0.625 0
680 0.59375 0.625 0
681 0.625 0.625 0
682 0.65625 0.625 0
683 0.6875 0.625 0
684 0.71875 0.625 0
685 0.75 0.625 0
686 0.78125 0.625 0
687 0.8125 0.625 0
688 0.84375 0.625 0
689 0.875 0.625 0
690 0.90625 0.625 0
691 0.9375 0.625 0
692 0.96875 0.625 0
693 1 0.625 0
694 0 0.65625 0
695 0.03125 0.65625 0
696 0.0625 0.65625 0
697 0.09375 0.65625 0
698 0.125 0.65625 0
699 0.15625 0.65625 0
700 0.1875 0.65625 0
701 0.21875 0.65625 0
702 0.25 0.65625 0
703 0.28125 0.65625 0
704 0.3125 0.65625 0
705 0.34375 0.65625 0
706 0.375 0.65625 0
707 0.40625 0.65625 0
708 0.4375 0.65625 0
709 0.46875 0.65625 0
710 0.5 0.65625 0
711 0.53125 0.65625 0
712 0.5625 0.65625 0
713 0.59375 0.65625 0
714 0.625 0.65625 0
715 0.65625 0.65625 0
716 0.6875 0.65625 0
717 0.71875 0.65625 0
718 0.75 0.65625 0
719 0.78125 0.65625 0
720 0.8125 0.65625 0
721 0.84375 0.65625 0
722 0.875 0.65625 0
723 0.90625 0.65625 0
724 0.9375 0.65625 0
725 0.96875 0.65625 0
726 1 0.65625 0
727 0 0.6875 0
728 0.03125 0.6875 0
729 0.0625 0.6875 0
730 0.09375 0.6875 0
731 0.125 0.6875 0
732 0.15625 0.6875 0
733 0.1875 0.6875 0
734 0.21875 0.6875 0
735 0.25 0.6875 0
736 0.28125 0.6875 0
737 0.3125 0.6875 0
738 0.34375 0.6875 0
739 0.375 0.6875 0
740 0.40625 0.6875 0
741 0.4375 0.6875 0
742 0.46875 0.6875 0
743 0.5 0.6875 0
744 0.53125 0.6875 0
745 0.5625 0.6875 0
746 0.59375 0.6875 0
747 0.625 0.6875 0
748 0.65625 0.6875 0
749 0.6875 0.6875 0
750 0.71875 0.6875 0
751 0.75 0.6875 0
752 0.78125 0.6875 0
753 0.8125 0.6875 0
754 0.84375 0.6875 0
755 0.875 0.6875 0
756 0.90625 0.6875 0
757 0.9375 0.6875 0
758 0.96875 0.6875 0
759 1 0.6875 0
760 0 0.71875 0
761 0.03125 0.71875 0
762 0.0625 0.71875 0
763 0.09375 0.71875 0
764 0.125 0.71875 0
765 0.15625 0.71875 0
766 0.1875 0.71875 0
767 0.21875 0.71875 0
768 0.25 0.71875 0
769 0.28125 0.71875 0
770 0.3125 0.71875 0
771 0.34375 0.71875 0
772 0.375 0.71875 0
773 0.40625 0.71875 0
774 0.4375 0.71875 0
775 0.46875 0.71875 0
776 0.5 0.71875 0
777 0.53125 0.71875 0
778 0.5625 0.71875 0
779 0.59375 0.71875 0
780 0.625 0.71875 0
781 0.65625 0.71875 0
782 0.6875 0.71875 0
783 0.71875 0.71875 0
784 0.75 0.71875 0
785 0.78125 0.71875 0
786 0.8125 0.71875 0
787 0.84375 0.71875 0
788 0.875 0.71875 0
789 0.90625 0.71875 0
790 0.9375 0.71875 0
791 0.96875 0.71875 0
792 1 0.71875 0
793 0 0.75 0
794 0.03125 0.75 0
795 0.0625 0.75 0
796 0.09375 0.75 0
797 0.125 0.75 0
798 0.15625 0.75 0
799 0.1875 0.75 0
800 0.21875 0.75 0
801 0.25 0.75 0
802 0.28125 0.75 0
803 0.3125 0.75 0
804 0.34375 0.75 0
805 0.375 0.75 0
806 0.40625 0.75 0
807 0.4375 0.75 0
808 0.46875 0.75 0
809 0.5 0.75 0
810 0.53125 0.75 0
811 0.5625 0.75 0
812 0.59375 0.75 0
813 0.625 0.75 0
814 0.65625 0.75 0
815 0.6875 0.75 0
816 0.71875 0.75 0
817 0.75 0.75 0
818 0.78125 0.75 0
819 0.8125 0.75 0
820 0.84375 0.75 0
821 0.875 0.75 0
822 0.90625 0.75 0
823 0.9375 0.75 0
824 0.96875 0.75 0
825 1 0.75 0
826 0 0.78125 0
827 0.03125 0.78125 0
828 0.0625 0.78125 0
829 0.09375 0.78125 0
830 0.125 0.78125 0
831 0.15625 0.78125 0
832 0.1875 0.78125 0
833 0.21875 0.78125 0
834 0.25 0.78125 0
835 0.28125 0.78125 0
836 0.3125 0.78125 0
837 0.34375 0.78125 0
838 0.375 0.78125 0
839 0.40625 0.78125 0
840 0.4375 0.78125 0
841 0.46875 0.78125 0
842 0.5 0.78125 0
843 0.53125 0.78125 0
844 0.5625 0.78125 0
845 0.59375 0.78125 0
846 0.625 0.78125 0
847 0.65625 0.78125 0
848 0.6875 0.78125 0
849 0.71875 0.78125 0
850 0.75 0.78125 0
851 0.78125 0.78125 0
852 0.8125 0.78125 0
853 0.84375 0.78125 0
854 0.875 0.78125 0
855 0.90625 0.78125 0
856 0.9375 0.78125 0
857 0.96875 0.78125 0
858 1 0.78125 0
859 0 0.8125 0
860 0.03125 0.8125 0
861 0.0625 0.8125 0
862 0.09375 0.8125 0
863 0.125 0.8125 0
864 0.15625 0.8125 0
865 0.1875 0.8125 0
866 0.21875 0.8125 0
867 0.25 0.8125 0
868 0.28125 0.8125 0
869 0.3125 0.8125 0
870 0.34375 0.8125 0
871 0.375 0.8125 0
872 0.40625 0.8125 0
873 0.4375 0.8125 0
874 0.46875 0.8125 0
875 0.5 0.8125 0
876 0.53125 0.8125 0
877 0.5625 0.8125 0
878 0.59375 0.8125 0
879 0.625 0.8125 0
880 0.65625 0.8125 0
881 0.6875 0.8125 0
882 0.71875 0.8125 0
883 0.75 0.8125 0
884 0.78125 0.8125 0
885 0.8125 0.8125 0
886 0.84375 0.8125 0
887 0.875 0.8125 0
888 0.90625 0.8125 0
889 0.9375 0.8125 0
890 0.96875 0.8125 0
891 1 0.8125 0
892 0 0.84375 0
893 0.03125 0.84375 0
894 0.0625 0.84375 0
895 0.09375 0.84375 0
896 0.125 0.84375 0
897 0.15625 0.84375 0
898 0.1875 0.84375 0
899 0.21875 0.84375 0
900 0.25 0.84375 0
901 0.28125 0.84375 0
902 0.3125 0.84375 0
903 0.34375 0.84375 0
904 0.375 0.84375 0
905 0.40625 0.84375 0
906 0.4375 0.84375 0
907 0.46875 0.84375 0
908 0.5 0.84375 0
909 0.53125 0.84375 0
910 0.5625 0.84375 0
911 0.59375 0.84375 0
912 0.625 0.84375 0
913 0.65625 0.84375 0
914 0.6875 0.84375 0
915 0.71875 0.84375 0
916 0.75 0.84375 0
917 0.78125 0.84375 0
918 0.8125 0.84375 0
919 0.84375 0.84375 0
920 0.875 0.84375 0
921 0.90625 0.84375 0
922 0.9375 0.84375 0
923 0.96875 0.84375 0
924 1 0.84375 0
925 0 0.875 0
926 0.03125 0.875 0
927 0.0625 0.875 0
928 0.09375 0.875 0
929 0.125 0.875 0
930 0.15625 0.875 0
931 0.1875 0.875 0
932 0.21875 0.875 0
933 0.25 0.875 0
934 0.28125 0.875 0
935 0.3125 0.875 0
936 0.34375 0.875 0
937 0.375 0.875 0
938 0.40625 0.875 0
939 0.4375 0.875 0
940 0.46875 0.875 0
941 0.5 0.875 0
942 0.53125 0.875 0
943 0.5625 0.875 0
944 0.59375 0.875 0
945 0.625 0.875 0
946 0.65625 0.875 0
947 0.6875 0.875 0
948 0.71875 0.875 0
949 0.75 0.875 0
950 0.78125 0.875 0
951 0.8125 0.875 0
952 0.84375 0.875 0
953 0.875 0.875 0
954 0.90625 0.875 0
955 0.9375 0.875 0
956 0.96875 0.875 0
957 1 0.875 0
958 0 0.90625 0
959 0.03125 0.90625 0
960 0.0625 0.90625 0
961 0.09375 0.90625 0
962 0.125 0.90625 0
963 0.15625 0.90625 0
964 0.1875 0.90625 0
965 0.21875 0.90625 0
966 0.25 0.90625 0
967 0.28125 0.90625 0
968 0.3125 0.90625 0
969 0.34375 0.90625 0
970 0.375 0.90625 0
971 0.40625 0.90625 0
972 0.4375 0.90625 0
973 0.46875 0.90625 0
974 0.5 0.90625 0
975 0.53125 0.90625 0
976 0.5625 0.90625 0
977 0.59375 0.90625 0
978 0.625 0.90625 0
979 0.65625 0.90625 0
980 0.6875 0.90625 0
981 0.71875 0.90625 0
982 0.75 0.90625 0
983 0.78125 0.90625 0
984 0.8125 0.90625 0
985 0.84375 0.90625 0
986 0.875 0.90625 0
987 0.90625 0.90625 0
988 0.9375 0.90625 0
989 0.96875 0.90625 0
990 1 0.90625 0
991 0 0.9375 0
992 0.03125 0.9375 0
993 0.0625 0.9375 0
994 0.09375 0.9375 0
995 0.125 0.9375 0
996 0.15625 0.9375 0
997 0.1875 0.9375 0
998 0.21875 0.9375 0
999 0.25 0.9375 0
1000 0.28125 0.9375 0
1001 0.3125 0.9375 0
1002 0.34375 0.9375 0
1003 0.375 0.9375 0
1004 0.40625 0.9375 0
1005 0.4375 0.9375 0
1006 0.46875 0.9375 0
1007 0.5 0.9375 0
1008 0.53125 0.9375 0
1009 0.5625 0.9375 0
1010 0.59375 0.9375 0
1011 0.625 0.9375 0
1012 0.65625 0.9375 0
1013 0.6875 0.9375 0
1014 0.71875 0.9375 0
1015 0.75 0.9375 0
1016 0.78125 0.9375 0
1017 0.8125 0.9375 0
1018 0.84375 0.9375 0
1019 0.875 0.9375 0
1020 0.90625 0.9375 0
1021 0.9375 0.9375 0
1022 0.96875 0.9375 0
1023 1 0.9375 0
1024 0 0.96875 0
1025 0.03125 0.96875 0
1026 0.0625 0.96875 0
1027 0.09375 0.96875 0
1028 0.125 0.96875 0
1029 0.15625 0.96875 0
1030 0.1875 0.96875 0
1031 0.21875 0.96875 0
1032 0.25 0.96875 0
1033 0.28125 0.96875 0
1034 0.3125 0.96875 0
1035 0.34375 0.96875 0
1036 0.375 0.96875 0
1037 0.40625 0.96875 0
1038 0.4375 0.96875 0
1039 0.46875 0.96875 0
1040 0.5 0.96875 0
1041 0.53125 0.96875 0
1042 0.5625 0.96875 0
1043 0.59375 0.96875 0
1044 0.625 0.96875 0
1045 0.65625 0.96875 0
1046 0.6875 0.96875 0
1047 0.71875 0.96875 0
1048 0.75 0.96875 0
1049 0.78125 0.96875 0
1050 0.8125 0.96875 0
1051 0.84375 0.96875 0
1052 0.875 0.96875 0
1053 0.90625 0.96875 0
1054 0.9375 0.96875 0
1055 0.96875 0.96875 0
1056 1 0.96875 0
1057 0 1 0
1058 0.03125 1 0
1059 0.0625 1 0
1060 0.09375 1 0
1061 0.125 1 0
1062 0.15625 1 0
1063 0.1875 1 0
1064 0.21875 1 0
1065 0.25 1 0
1066 0.28125 1 0
1067 0.3125 1 0
1068 0.34375 1 0
1069 0.375 1 0
1070 0.40625 1 0
1071 0.4375 1 0
1072 0.46875 1 0
1073 0.5 1 0
1074 0.53125 1 0
1075 0.5625 1 0
1076 0.59375 1 0
1077 0.625 1 0
1078 0.65625 1 0
1079 0.6875 1 0
1080 0.71875 1 0
1081 0.75 1 0
1082 0.78125 1 0
1083 0.8125 1 0
1084 0.84375 1 0
1085 0.875 1 0
1086 0.90625 1 0
1087 0.9375 1 0
1088 0.96875 1 0
1089 1 1 0
$EndNodes
$Elements
1152
1 1 2 1 1 1 34
2 1 2 1 1 34 67
3 1 2 1 1 67 100
4 1 2 1 1 100 133
5 1 2 1 1 133 166
6 1 2 1 1 166 199
7 1 2 1 1 199 232
8 1 2 1 1 232 265
9 1 2 1 1 265 298
10 1 2 1 1 298 331
11 1 2 1 1 331 364
12 1 2 1 1 364 397
13 1 2 1 1 397 430
14 1 2 1 1 430 463
15 1 2 1 1 463 496
16 1 2 1 1 496 529
17 1 2 1 1 529 562
18 1 2 1 1 562 595
19 1 2 1 1 595 628
20 1 2 1 1 628 661
21 1 2 1 1 661 694
22 1 2 1 1 694 727
23 1 2 1 1 727 760
24 1 2 1 1 760 793
25 1 2 1 1 793 826
26 1 2 1 1 826 859
27 1 2 1 1 859 892
28 1 2 1 1 892 925
29 1 2 1 1 925 958
30 1 2 1 1 958 991
31 1 2 1 1 991 1024
32 1 2 1 1 1024 1057
33 1 2 2 2 33 66
34 1 2 2 2 66 99
35 1 2 2 2 99 132
36 1 2 2 2 132 165
37 1 2 2 2 165 198
38 1 2 2 2 198 231
39 1 2 2 2 231 264
40 1 2 2 2 264 297
41 1 2 2 2 297 330
42 1 2 2 2 330 363
43 1 2 2 2 363 396
44 1 2 2 2 396 429
45 1 2 2 2 429 462
46 1 2 2 2 462 495
47 1 2 2 2 495 528
48 1 2 2 2 528 561
49 1 2 2 2 561 594
50 1 2 2 2 594 627
51 1 2 2 2 627 660
52 1 2 2 2 660 693
53 1 2 2 2 693 726
54 1 2 2 2 726 759
55 1 2 2 2 759 792
56 1 2 2 2 792 825
57 1 2 2 2 825 858
58 1 2 2 2 858 891
59 1 2 2 2 891 924
60 1 2 2 2 924 957
61 1 2 2 2 957 990
62 1 2 2 2 990 1023
63 1 2 2 2 1023 1056
64 1 2 2 2 1056 1089
65 1 2 3 3 1 2
66 1 2 3 3 2 3
67 1 2 3 3 3 4
68 1 2 3 3 4 5
69 1 2 3 3 5 6
70 1 2 3 3 6 7
71 1 2 3 3 7 8
72 1 2 3 3 8 9
73 1 2 3 3 9 10
74 1 2 3 3 10 11
75 1 2 3 3 11 12
76 1 2 3 3 12 13
77 1 2 3 3 13 14
78 1 2 3 3 14 15
79 1 2 3 3 15 16
80 1 2 3 3 16 17
81 1 2 3 3 17 18
82 1 2 3 3 18 19
83 1 2 3 3 19 20
84 1 2 3 3 20 21
85 1 2 3 3 21 22
86 1 2 3 3 22 23
87 1 2 3 3 23 24
88 1 2 3 3 24 25
89 1 2 3 3 25 26
90 1 2 3 3 26 27
91 1 2 3 3 27 28
92 1 2 3 3 28 29
93 1 2 3 3 29 30
94 1 2 3 3 30 31
95 1 2 3 3 31 32
96 1 2 3 3 32 33
97 1 2 4 4 1057 1058
98 1 2 4 4 1058 1059
99 1 2 4 4 1059 1060
100 1 2 4 4 1060 1061
101 1 2 4 4 1061 1062
102 1 2 4 4 1062 1063
103 1 2 4 4 1063 1064
104 1 2 4 4 1064 1065
105 1 2 4 4 1065 1066
106 1 2 4 4 1066 1067
107 1 2 4 4 1067 1068
108 1 2 4 4 1068 1069
109 1 2 4 4 1069 1070
110 1 2 4 4 1070 1071
111 1 2 4 4 1071 1072
112 1 2 4 4 1072 1073
113 1 2 4 4 1073 1074
114 1 2 4 4 1074 1075
115 1 2 4 4 1075 1076
116 1 2 4 4 1076 1077
117 1 2 4 4 1077 1078
118 1 2 4 4 1078 1079
119 1 2 4 4 1079 1080
120 1 2 4 4 1080 1081
121 1 2 4 4 1081 1082
122 1 2 4 4 1082 1083
123 1 2 4 4 1083 1084
124 1 2 4 4 1084 1085
125 1 2 4 4 1085 1086
126 1 2 4 4 1086 1087
127 1 2 4 4 1087 1088
128 1 2 4 4 1088 1089
129 3 2 5 5 1 2 35 34
130 3 2 5 5 2 3 36 35
131 3 2 5 5 3 4 37 36
132 3 2 5 5 4 5 38 37
133 3 2 5 5 5 6 39 38
134 3 2 5 5 6 7 40 39
135 3 2 5 5 7 8 41 40
136 3 2 5 5 8 9 42 41
137 3 2 5 5 9 10 43 42
138 3 2 5 5 10 11 44 43
139 3 2 5 5 11 12 45 44
140 3 2 5 5 12 13 46 45
141 3 2 5 5 13 14 47 46
142 3 2 5 5 14 15 48 47
143 3 2 5 5 15 16 49 48
144 3 2 5 5 16 17 50 49
145 3 2 5 5 17 18 51 50
146 3 2 5 5 18 19 52 51
147 3 2 5 5 19 20 53 52
148 3 2 5 5 20 21 54 53
149 3 2 5 5 21 22 55 54
150 3 2 5 5 22 23 56 55
151 3 2 5 5 23 24 57 56
152 3 2 5 5 24 25 58 57
153 3 2 5 5 25 26 59 58
154 3 2 5 5 26 27 60 59
155 3 2 5 5 27 28 61 60
156 3 2 5 5 28 29 62 61
157 3 2 5 5 29 30 63 62
158 3 2 5 5 30 31 64 63
159 3 2 5 5 31 32 65 64
160 3 2 5 5 32 33 66 65
161 3 2 5 5 34 35 68 67
162 3 2 5 5 35 36 69 68
163 3 2 5 5 36 37 70 69
164 3 2 5 5 37 38 71 70
165 3 2 5 5 38 39 72 71
166 3 2 5 5 39 40 73 72
167 3 2 5 5 40 41 74 73
168 3 2 5 5 41 42 75 74
169 3 2 5 5 42 43 76 75
170 3 2 5 5 43 44 77 76
171 3 2 5 5 44 45 78 77
172 3 2 5 5 45 46 79 78
173 3 2 5 5 46 47 80 79
174 3 2 5 5 47 48 81 80
175 3 2 5 5 48 49 82 81
176 3 2 5 5 49 50 83 82
177 3 2 5 5 50 51 84 83
178 3 2 5 5 51 52 85 84
179 3 2 5 5 52 53 86 85
180 3 2 5 5 53 54 87 86
181 3 2 5 5 54 55 88 87
182 3 2 5 5 55 56 89 88
183 3 2 5 5 56 57 90 89
184 3 2 5 5 57 58 91 90
185 3 2 5 5 58 59 92 91
186 3 2 5 5 59 60 93 92
187 3 2 5 5 60 61 94 93
188 3 2 5 5 61 62 95 94
189 3 2 5 5 62 63 96 95
190 3 2 5 5 63 64 97 96
191 3 2 5 5 64 65 98 97
192 3 2 5 5 65 66 99 98
193 3 2 5 5 67 68 101 100
194 3 2 5 5 68 69 102 101
195 3 2 5 5 69 70 103 102
196 3 2 5 5 70 71 104 103
197 3 2 5 5 71 72 105 104
198 3 2 5 5 72 73 106 105
199 3 2 5 5 73 74 107 106
200 3 2 5 5 74 75 108 107
201 3 2 5 5 75 76 109 108
202 3 2 5 5 76 77 110 109
203 3 2 5 5 77 78 111 110
204 3 2 5 5 78 79 112 111
205 3 2 5 5 79 80 113 112
206 3 2 5 5 80 81 114 113
207 3 2 5 5 81 82 115 114
208 3 2 5 5 82 83 116 115
209 3 2 5 5 83 84 117 116
210 3 2 5 5 84 85 118 117
211 3 2 5 5 85 86 119 118
212 3 2 5 5 86 87 120 119
213 3 2 5 5 87 88 121 120
214 3 2 5 5 88 89 122 121
215 3 2 5 5 89 90 123 122
216 3 2 5 5 90 91 124 123
217 3 2 5 5 91 92 125 124
218 3 2 5 5 92 93 126 125
219 3 2 5 5 93 94 127 126
220 3 2 5 5 94 95 128 127
221 3 2 5 5 95 96 129 128
222 3 2 5 5 96 97 130 129
223 3 2 5 5 97 98 131 130
224 3 2 5 5 98 99 132 131
225 3 2 5 5 100 101 134 133
226 3 2 5 5 101 102 135 134
227 3 2 5 5 102 103 136 135
228 3 2 5 5 103 104 137 136
229 3 2 5 5 104 105 138 137
230 3 2 5 5 105 106 139 138
231 3 2 5 5 106 107 140 139
232 3 2 5 5 107 108 141 140
233 3 2 5 5 108 109 142 141
234 3 2 5 5 109 110 143 142
235 3 2 5 5 110 111 144 143
236 3 2 5 5 111 112 145 144
237 3 2 5 5 112 113 146 145
238 3 2 5 5 113 114 147 146
239 3 2 5 5 114 115 148 147
240 3 2 5 5 115 116 149 148
241 3 2 5 5 116 117 150 149
242 3 2 5 5 117 118 151 150
243 3 2 5 5 118 119 152 151
244 3 2 5 5 119 120 153 152
245 3 2 5 5 120 121 154 153
246 3 2 5 5 121 122 155 154
247 3 2 5 5 122 123 156 155
248 3 2 5 5 123 124 157 156
249 3 2 5 5 124 125 158 157
250 3 2 5 5 125 126 159 158
251 3 2 5 5 126 127 160 159
252 3 2 5 5 127 128 161 160
253 3 2 5 5 128 129 162 161
254 3 2 5 5 129 130 163 162
255 3 2 5 5 130 131 164 163
256 3 2 5 5 131 132 165 164
257 3 2 5 5 133 134 167 166
258 3 2 5 5 134 135 168 167
259 3 2 5 5 135 136 169 168
260 3 2 5 5 136 137 170 169
261 3 2 5 5 137 138 171 170
262 3 2 5 5 138 139 172 171
263 3 2 5 5 139 140 173 172
264 3 2 5 5 140 141 174 173
265 3 2 5 5 141 142 175 174
266 3 2 5 5 142 143 176 175
267 3 2 5 5 143 144 177 176
268 3 2 5 5 144 145 178 177
269 3 2 5 5 145 146 179 178
270 3 2 5 5 146 147 180 179
271 3 2 5 5 147 148 181 180
272 3 2 5 5 148 149 182 181
273 3 2 5 5 149 150 183 182
274 3 2 5 5 150 151 184 183
275 3 2 5 5 151 152 185 184
276 3 2 5 5 152 153 186 185
277 3 2 5 5 153 154 187 186
278 3 2 5 5 154 155 188 187
279 3 2 5 5 155 156 189 188
280 3 2 5 5 156 157 190 189
281 3 2 5 5 157 158 191 190
282 3 2 5 5 158 159 192 191
283 3 2 5 5 159 160 193 192
284 3 2 5 5 160 161 194 193
285 3 2 5 5 161 162 195 194
286 3 2 5 5 162 163 196 195
287 3 2 5 5 163 164 197 196
288 3 2 5 5 164 165 198 197
289 3 2 5 5 166 167 200 199
290 3 2 5 5 167 168 201 200
291 3 2 5 5 168 169 202 201
292 3 2 5 5 169 170 203 202
293 3 2 5 5 170 171 204 203
294 3 2 5 5 171 172 205 204
295 3 2 5 5 172 173 206 205
296 3 2 5 5 173 174 207 206
297 3 2 5 5 174 175 208 207
298 3 2 5 5 175 176 209 208
299 3 2 5 5 176 177 210 209
300 3 2 5 5 177 178 211 210
301 3 2 5 5 178 179 212 211
302 3 2 5 5 179 180 213 212
303 3 2 5 5 180 181 214 213
304 3 2 5 5 181 182 215 214
305 3 2 5 5 182 183 216 215
306 3 2 5 5 183 184 217 216
307 3 2 5 5 184 185 218 217
308 3 2 5 5 185 186 219 218
309 3 2 5 5 186 187 220 219
310 3 2 5 5 187 188 221 220
311 3 2 5 5 188 189 222 221
312 3 2 5 5 189 190 223 222
313 3 2 5 5 190 191 224 223
314 3 2 5 5 191 192 225 224
315 3 2 5 5 192 193 226 225
316 3 2 5 5 193 194 227 226
317 3 2 5 5 194 195 228 227
318 3 2 5 5 195 196 229 228
319 3 2 5 5 196 197 230 229
320 3 2 5 5 197 198 231 230
321 3 2 5 5 199 200 233 232
322 3 2 5 5 200 201 234 233
323 3 2 5 5 201 202 235 234
324 3 2 5 5 202 203 236 235
325 3 2 5 5 203 204 237 236
326 3 2 5 5 204 205 238 237
327 3 2 5 5 205 206 239 238
328 3 2 5 5 206 207 240 239
329 3 2 5 5 207 208 241 240
330 3 2 5 5 208 209 242 241
331 3 2 5 5 209 210 243 242
332 3 2 5 5 210 211 244 243
333 3 2 5 5 211 212 245 244
334 3 2 5 5 212 213 246 245
335 3 2 5 5 213 214 247 246
336 3 2 5 5 214 215 248 247
337 3 2 5 5 215 216 249 248
338 3 2 5 5 216 217 250 249
339 3 2 5 5 217 218 251 250
340 3 2 5 5 218 219 252 251
341 3 2 5 5 219 220 253 252
342 3 2 5 5 220 221 254 253
343 3 2 5 5 221 222 255 254
344 3 2 5 5 222 223 256 255
345 3 2 5 5 223 224 257 256
346 3 2 5 5 224 225 258 257
347 3 2 5 5 225 226 259 258
348 3 2 5 5 226 227 260 259
349 3 2 5 5 227 228 261 260
350 3 2 5 5 228 229 262 261
351 3 2 5 5 229 230 263 262
352 3 2 5 5 230 231 264 263
353 3 2 5 5 232 233 266 265
354 3 2 5 5 233 234 267 266
355 3 2 5 5 234 235 268 267
356 3 2 5 5 235 236 269 268
357 3 2 5 5 236 237 270 269
358 3 2 5 5 237 238 271 270
359 3 2 5 5 238 239 272 271
360 3 2 5 5 239 240 273 272
361 3 2 5 5 240 241 274 273
362 3 2 5 5 241 242 275 274
363 3 2 5 5 242 243 276 275
364 3 2 5 5 243 244 277 276
365 3 2 5 5 244 245 278 277
366 3 2 5 5 245 246 279 278
367 3 2 5 5 246 247 280 279
368 3 2 5 5 247 248 281 280
369 3 2 5 5 248 249 282 281
370 3 2 5 5 249 250 283 282
371 3 2 5 5 250 251 284 283
372 3 2 5 5 251 252 285 284
373 3 2 5 5 252 253 286 285
374 3 2 5 5 253 254 287 286
375 3 2 5 5 254 255 288 287
376 3 2 5 5 255 256 289 288
377 3 2 5 5 256 257 290 289
378 3 2 5 5 257 258 291 290
379 3 2 5 5 258 259 292 291
380 3 2 5 5 259 260 293 292
381 3 2 5 5 260 261 294 293
382 3 2 5 5 261 262 295 294
383 3 2 5 5 262 263 296 295
384 3 2 5 5 263 264 297 296
385 3 2 5 5 265 266 299 298
386 3 2 5 5 266 267 300 299
387 3 2 5 5 267 268 301 300
388 3 2 5 5 268 269 302 301
389 3 2 5 5 269 270 303 302
390 3 2 5 5 270 271 304 303
391 3 2 5 5 271 272 305 304
392 3 2 5 5 272 273 306 305
393 3 2 5 5 273 274 307 306
394 3 2 5 5 274 275 308 307
395 3 2 5 5 275 276 309 308
396 3 2 5 5 276 277 310 309
397 3 2 5 5 277 278 311 310
398 3 2 5 5 278 279 312 311
399 3 2 5 5 279 280 313 312
400 3 2 5 5 280 281 314 313
401 3 2 5 5 281 282 315 314
402 3 2 5 5 282 283 316 315
403 3 2 5 5 283 284 317 316
404 3 2 5 5 284 285 318 317
405 3 2 5 5 285 286 319 318
406 3 2 5 5 286 287 320 319
407 3 2 5 5 287 288 321 320
408 3 2 5 5 288 289 322 321
409 3 2 5 5 289 290 323 322
410 3 2 5 5 290 291 324 323
411 3 2 5 5 291 292 325 324
412 3 2 5 5 292 293 326 325
413 3 2 5 5 293 294 327 326
414 3 2 5 5 294 295 328 327
415 3 2 5 5 295 296 329 328
416 3 2 5 5 296 297 330 329
417 3 2 5 5 298 299 332 331
418 3 2 5 5 299 300 333 332
419 3 2 5 5 300 301 334 333
420 3 2 5 5 301 302 335 334
421 3 2 5 5 302 303 336 335
422 3 2 5 5 303 304 337 336
423 3 2 5 5 304 305 338 337
424 3 2 5 5 305 306 339 338
425 3 2 5 5 306 307 340 339
426 3 2 5 5 307 308 341 340
427 3 2 5 5 308 309 342 341
428 3 2 5 5 309 310 343 342
429 3 2 5 5 310 311 344 343
430 3 2 5 5 311 312 345 344
431 3 2 5 5 312 313 346 345
432 3 2 5 5 313 314 347 346
433 3 2 5 5 314 315 348 347
434 3 2 5 5 315 316 349 348
435 3 2 5 5 316 317 350 349
436 3 2 5 5 317 318 351 350
437 3 2 5 5 318 319 352 351
438 3 2 5 5 319 320 353 352
439 3 2 5 5 320 321 354 353
440 3 2 5 5 321 322 355 354
441 3 2 5 5 322 323 356 355
442 3 2 5 5 323 324 357 356
443 3 2 5 5 324 325 358 357
444 3 2 5 5 325 326 359 358
445 3 2 5 5 326 327 360 359
446 3 2 5 5 327 328 361 360
447 3 2 5 5 328 329 362 361
448 3 2 5 5 329 330 363 362
449 3 2 5 5 331 332 365 364
450 3 2 5 5 332 333 366 365
451 3 2 5 5 333 334 367 366
452 3 2 5 5 334 335 368 367
453 3 2 5 5 335 336 369 368
454 3 2 5 5 336 337 370 369
455 3 2 5 5 337 338 371 370
456 3 2 5 5 338 339 372 371
457 3 2 5 5 339 340 373 372
458 3 2 5 5 340 341 374 373
459 3 2 5 5 341 342 375 374
460 3 2 5 5 342 343 376 375
461 3 2 5 5 343 344 377 376
462 3 2 5 5 344 345 378 377
463 3 2 5 5 345 346 379 378
464 3 2 5 5 346 347 380 379
465 3 2 5 5 347 348 381 380
466 3 2 5 5 348 349 382 381
467 3 2 5 5 349 350 383 382
468 3 2 5 5 350 351 384 383
469 3 2 5 5 351 352 385 384
470 3 2 5 5 352 353 386 385
471 3 2 5 5 353 354 387 386
472 3 2 5 5 354 355 388 387
473 3 2 5 5 355 356 389 388
474 3 2 5 5 356 357 390 389
475 3 2 5 5 357 358 391 390
476 3 2 5 5 358 359 392 391
477 3 2 5 5 359 360 393 392
478 3 2 5 5 360 361 394 393
479 3 2 5 5 361 362 395 394
480 3 2 5 5 362 363 396 395
481 3 2 5 5 364 365 398 397
482 3 2 5 5 365 366 399 398
483 3 2 5 5 366 367 400 399
484 3 2 5 5 367 368 401 400
485 3 2 5 5 368 369 402 401
486 3 2 5 5 369 370 403 402
487 3 2 5 5 370 371 404 403
488 3 2 5 5 371 372 405 404
489 3 2 5 5 372 373 406 405
490 3 2 5 5 373 374 407 406
491 3 2 5 5 374 375 408 407
492 3 2 5 5 375 376 409 408
493 3 2 5 5 376 377 410 409
494 3 2 5 5 377 378 411 410
495 3 2 5 5 378 379 412 411
496 3 2 5 5 379 380 413 412
497 3 2 5 5 380 381 414 413
498 3 2 5 5 381 382 415 414
499 3 2 5 5 382 383 416 415
500 3 2 5 5 383 384 417 416
501 3 2 5 5 384 385 418 417
502 3 2 5 5 385 386 419 418
503 3 2 5 5 386 387 420 419
504 3 2 5 5 387 388 421 420
505 3 2 5 5 388 389 422 421
506 3 2 5 5 389 390 423 422
507 3 2 5 5 390 391 424 423
508 3 2 5 5 391 392 425 424
509 3 2 5 5 392 393 426 425
510 3 2 5 5 393 394 427 426
511 3 2 5 5 394 395 428 427
512 3 2 5 5 395 396 429 428
513 3 2 5 5 397 398 431 430
514 3 2 5 5 398 399 432 431
515 3 2 5 5 399 400 433 432
516 3 2 5 5 400 401 434 433
517 3 2 5 5 401 402 435 434
518 3 2 5 5 402 403 436 435
519 3 2 5 5 403 404 437 436
520 3 2 5 5 404 405 438 437
521 3 2 5 5 405 406 439 438
522 3 2 5 5 406 407 440 439
523 3 2 5 5 407 408 441 440
524 3 2 5 5 408 409 442 441
525 3 2 5 5 409 410 443 442
526 3 2 5 5 410 411 444 443
527 3 2 5 5 411 412 445 444
528 3 2 5 5 412 413 446 445
529 3 2 5 5 413 414 447 446
530 3 2 5 5 414 415 448 447
531 3 2 5 5 415 416 449 448
532 3 2 5 5 416 417 450 449
533 3 2 5 5 417 418 451 450
534 3 2 5 5 418 419 452 451
535 3 2 5 5 419 420 453 452
536 3 2 5 5 420 421 454 453
537 3 2 5 5 421 422 455 454
538 3 2 5 5 422 423 456 455
539 3 2 5 5 423 424 457 456
540 3 2 5 5 424 425 458 457
541 3 2 5 5 425 426 459 458
542 3 2 5 5 426 427 460 459
543 3 2 5 5 427 428 461 460
544 3 2 5 5 428 429 462 461
545 3 2 5 5 430 431 464 463
546 3 2 5 5 431 432 465 464
547 3 2 5 5 432 433 466 465
548 3 2 5 5 433 434 467 466
549 3 2 5 5 434 435 468 467
550 3 2 5 5 435 436 469 468
551 3 2 5 5 436 437 470 469
552 3 2 5 5 437 438 471 470
553 3 2 5 5 438 439 472 471
554 3 2 5 5 439 440 473 472
555 3 2 5 5 440 441 474 473
556 3 2 5 5 441 442 475 474
557 3 2 5 5 442 443 476 475
558 3 2 5 5 443 444 477 476
559 3 2 5 5 444 445 478 477
560 3 2 5 5 445 446 479 478
561 3 2 5 5 446 447 480 479
562 3 2 5 5 447 448 481 480
563 3 2 5 5 448 449 482 481
564 3 2 5 5 449 450 483 482
565 3 2 5 5 450 451 484 483
566 3 2 5 5 451 452 485 484
567 3 2 5 5 452 453 486 485
568 3 2 5 5 453 454 487 486
569 3 2 5 5 454 455 488 487
570 3 2 5 5 455 456 489 488
571 3 2 5 5 456 457 490 489
572 3 2 5 5 457 458 491 490
573 3 2 5 5 458 459 492 491
574 3 2 5 5 459 460 493 492
575 3 2 5 5 460 461 494 493
576 3 2 5 5 461 462 495 494
577 3 2 5 5 463 464 497 496
578 3 2 5 5 464 465 498 497
579 3 2 5 5 465 466 499 498
580 3 2 5 5 466 467 500 499
581 3 2 5 5 467 468 501 500
582 3 2 5 5 468 469 502 501
583 3 2 5 5 469 470 503 502
584 3 2 5 5 470 471 504 503
585 3 2 5 5 471 472 505 504
586 3 2 5 5 472 473 506 505
587 3 2 5 5 473 474 507 506
588 3 2 5 5 474 475 508 507
589 3 2 5 5 475 476 509 508
590 3 2 5 5 476 477 510 509
591 3 2 5 5 477 478 511 510
592 3 2 5 5 478 479 512 511
593 3 2 5 5 479 480 513 512
594 3 2 5 5 480 481 514 513
595 3 2 5 5 481 482 515 514
596 3 2 5 5 482 483 516 515
597 3 2 5 5 483 484 517 516
598 3 2 5 5 484 485 518 517
599 3 2 5 5 485 486 519 518
600 3 2 5 5 486 487 520 519
601 3 2 5 5 487 488 521 520
602 3 2 5 5 488 489 522 521
603 3 2 5 5 489 490 523 522
604 3 2 5 5 490 491 524 523
605 3 2 5 5 491 492 525 524
606 3 2 5 5 492 493 526 525
607 3 2 5 5 493 494 527 526
608 3 2 5 5 494 495 528 527
609 3 2 5 5 496 497 530 529
610 3 2 5 5 497 498 531 530
611 3 2 5 5 498 499 532 531
612 3 2 5 5 499 500 533 532
613 3 2 5 5 500 501 534 533
614 3 2 5 5 501 502 535 534
615 3 2 5 5 502 503 536 535
616 3 2 5 5 503 504 537 536
617 3 2 5 5 504 505 538 537
618 3 2 5 5 505 506 539 538
619 3 2 5 5 506 507 540 539
620 3 2 5 5 507 508 541 540
621 3 2 5 5 508 509 542 541
622 3 2 5 5 509 510 543 542
623 3 2 5 5 510 511 544 543
624 3 2 5 5 511 512 545 544
625 3 2 5 5 512 513 546 545
626 3 2 5 5 513 514 547 546
627 3 2 5 5 514 515 548 547
628 3 2 5 5 515 516 549 548
629 3 2 5 5 516 517 550 549
630 3 2 5 5 517 518 551 550
631 3 2 5 5 518 519 552 551
632 3 2 5 5 519 520 553 552
633 3 2 5 5 520 521 554 553
634 3 2 5 5 521 522 555 554
635 3 2 5 5 522 523 556 555
636 3 2 5 5 523 524 557 556
637 3 2 5 5 524 525 558 557
638 3 2 5 5 525 526 559 558
639 3 2 5 5 526 527 560 559
640 3 2 5 5 527 528 561 560
641 3 2 5 5 529 530 563 562
642 3 2 5 5 530 531 564 563
643 3 2 5 5 531 532 565 564
644 3 2 5 5 532 533 566 565
645 3 2 5 5 533 534 567 566
646 3 2 5 5 534 535 568 567
647 3 2 5 5 535 536 569 568
648 3 2 5 5 536 537 570 569
649 3 2 5 5 537 538 571 570
650 3 2 5 5 538 539 572 571
651 3 2 5 5 539 540 573 572
652 3 2 5 5 540 541 574 573
653 3 2 5 5 541 542 575 574
654 3 2 5 5 542 543 576 575
655 3 2 5 5 543 544 577 576
656 3 2 5 5 544 545 578 577
657 3 2 5 5 545 546 579 578
658 3 2 5 5 546 547 580 579
659 3 2 5 5 547 548 581 580
660 3 2 5 5 548 549 582 581
661 3 2 5 5 549 550 583 582
662 3 2 5 5 550 551 584 583
663 3 2 5 5 551 552 585 584
664 3 2 5 5 552 553 586 585
665 3 2 5 5 553 554 587 586
666 3 2 5 5 554 555 588 587
667 3 2 5 5 555 556 589 588
668 3 2 5 5 556 557 590 589
669 3 2 5 5 557 558 591 590
670 3 2 5 5 558 559 592 591
671 3 2 5 5 559 560 593 592
672 3 2 5 5 560 561 594 593
673 3 2 5 5 562 563 596 595
674 3 2 5 5 563 564 597 596
675 3 2 5 5 564 565 598 597
676 3 2 5 5 565 566 599 598
677 3 2 5 5 566 567 600 599
678 3 2 5 5 567 568 601 600
679 3 2 5 5 568 569 602 601
680 3 2 5 5 569 570 603 602
681 3 2 5 5 570 571 604 603
682 3 2 5 5 571 572 605 604
683 3 2 5 5 572 573 606 605
684 3 2 5 5 573 574 607 606
685 3 2 5 5 574 575 608 607
686 3 2 5 5 575 576 609 608
687 3 2 5 5 576 577 610 609
688 3 2 5 5 577 578 611 610
689 3 2 5 5 578 579 612 611
690 3 2 5 5 579 580 613 612
691 3 2 5 5 580 581 614 613
692 3 2 5 5 581 582 615 614
693 3 2 5 5 582 583 616 615
694 3 2 5 5 583 584 617 616
695 3 2 5 5 584 585 618 617
696 3 2 5 5 585 586 619 618
697 3 2 5 5 586 587 620 619
698 3 2 5 5 587 588 621 620
699 3 2 5 5 588 589 622 621
700 3 2 5 5 589 590 623 622
701 3 2 5 5 590 591 624 623
702 3 2 5 5 591 592 625 624
703 3 2 5 5 592 593 626 625
704 3 2 5 5 593 594 627 626
705 3 2 5 5 595 596 629 628
706 3 2 5 5 596 597 630 629
707 3 2 5 5 597 598 631 630
708 3 2 5 5 598 599 632 631
709 3 2 5 5 599 600 633 632
710 3 2 5 5 600 601 634 633
711 3 2 5 5 601 602 635 634
712 3 2 5 5 602 603 636 635
713 3 2 5 5 603 604 637 636
714 3 2 5 5 604 605 638 637
715 3 2 5 5 605 606 639 638
716 3 2 5 5 606 607 640 639
717 3 2 5 5 607 608 641 640
718 3 2 5 5 608 609 642 641
719 3 2 5 5 609 610 643 642
720 3 2 5 5 610 611 644 643
721 3 2 5 5 611 612 645 644
722 3 2 5 5 612 613 646 645
723 3 2 5 5 613 614 647 646
724 3 2 5 5 614 615 648 647
725 3 2 5 5 615 616 649 648
726 3 2 5 5 616 617 650 649
727 3 2 5 5 617 618 651 650
728 3 2 5 5 618 619 652 651
729 3 2 5 5 619 620 653 652
730 3 2 5 5 620 621 654 653
731 3 2 5 5 621 622 655 654
732 3 2 5 5 622 623 656 655
733 3 2 5 5 623 624 657 656
734 3 2 5 5 624 625 658 657
735 3 2 5 5 625 626 659 658
736 3 2 5 5 626 627 660 659
737 3 2 5 5 628 629 662 661
738 3 2 5 5 629 630 663 662
739 3 2 5 5 630 631 664 663
740 3 2 5 5 631 632 665 664
741 3 2 5 5 632 633 666 665
742 3 2 5 5 633 634 667 666
743 3 2 5 5 634 635 668 667
744 3 2 5 5 635 636 669 668
745 3 2 5 5 636 637 670 669
746 3 2 5 5 637 638 671 670
747 3 2 5 5 638 639 672 671
748 3 2 5 5 639 640 673 672
749 3 2 5 5 640 641 674 673
750 3 2 5 5 641 642 675 674
751 3 2 5 5 642 643 676 675
752 3 2 5 5 643 644 677 676
753 3 2 5 5 644 645 678 677
754 3 2 5 5 645 646 679 678
755 3 2 5 5 646 647 680 679
756 3 2 5 5 647 648 681 680
757 3 2 5 5 648 649 682 681
758 3 2 5 5 649 650 683 682
759 3 2 5 5 650 651 684 683
760 3 2 5 5 651 652 685 684
761 3 2 5 5 652 653 686 685
762 3 2 5 5 653 654 687 686
763 3 2 5 5 654 655 688 687
764 3 2 5 5 655 656 689 688
765 3 2 5 5 656 657 690 689
766 3 2 5 5 657 658 691 690
767 3 2 5 5 658 659 692 691
768 3 2 5 5 659 660 693 692
769 3 2 5 5 661 662 695 694
770 3 2 5 5 662 663 696 695
771 3 2 5 5 663 664 697 696
772 3 2 5 5 664 665 698 697
773 3 2 5 5 665 666 699 698
774 3 2 5 5 666 667 700 699
775 3 2 5 5 667 668 701 700
776 3 2 5 5 668 669 702 701
777 3 2 5 5 669 670 703 702
778 3 2 5 5 670 671 704 703
779 3 2 5 5 671 672 705 704
780 3 2 5 5 672 673 706 705
781 3 2 5 5 673 674 707 706
782 3 2 5 5 674 675 708 707
783 3 2 5 5 675 676 709 708
784 3 2 5 5 676 677 710 709
785 3 2 5 5 677 678 711 710
786 3 2 5 5 678 679 712 711
787 3 2 5 5 679 680 713 712
788 3 2 5 5 680 681 714 713
789 3 2 5 5 681 682 715 714
790 3 2 5 5 682 683 716 715
791 3 2 5 5 683 684 717 716
792 3 2 5 5 684 685 718 717
793 3 2 5 5 685 686 719 718
794 3 2 5 5 686 687 720 719
795 3 2 5 5 687 688 721 720
796 3 2 5 5 688 689 722 721
797 3 2 5 5 689 690 723 722
798 3 2 5 5 690 691 724 723
799 3 2 5 5 691 692 725 724
800 3 2 5 5 692 693 726 725
801 3 2 5 5 694 695 728 727
802 3 2 5 5 695 696 729 728
803 3 2 5 5 696 697 730 729
804 3 2 5 5 697 698 731 730
805 3 2 5 5 698 699 732 731
806 3 2 5 5 699 700 733 732
807 3 2 5 5 700 701 734 733
808 3 2 5 5 701 702 735 734
809 3 2 5 5 702 703 736 735
810 3 2 5 5 703 704 737 736
811 3 2 5 5 704 705 738 737
812 3 2 5 5 705 706 739 738
813 3 2 5 5 706 707 740 739
814 3 2 5 5 707 708 741 740
815 3 2 5 5 708 709 742 741
816 3 2 5 5 709 710 743 742
817 3 2 5 5 710 711 744 743
818 3 2 5 5 711 712 745 744
819 3 2 5 5 712 713 746 745
820 3 2 5 5 713 714 747 746
821 3 2 5 5 714 715 748 747
822 3 2 5 5 715 716 749 748
823 3 2 5 5 716 717 750 749
824 3 2 5 5 717 718 751 750
825 3 2 5 5 718 719 752 751
826 3 2 5 5 719 720 753 752
827 3 2 5 5 720 721 754 753
828 3 2 5 5 721 722 755 754
829 3 2 5 5 722 723 756 755
830 3 2 5 5 723 724 757 756
831 3 2 5 5 724 725 758 757
832 3 2 5 5 725 726 759 758
833 3 2 5 5 727 728 761 760
834 3 2 5 5 728 729 762 761
835 3 2 5 5 729 730 763 762
836 3 2 5 5 730 731 764 763
837 3 2 5 5 731 732 765 764
838 3 2 5 5 732 733 766 765
839 3 2 5 5 733 734 767 766
840 3 2 5 5 734 735 768 767
841 3 2 5 5 735 736 769 768
842 3 2 5 5 736 737 770 769
843 3 2 5 5 737 738 771 770
844 3 2 5 5 738 739 772 771
845 3 2 5 5 739 740 773 772
846 3 2 5 5 740 741 774 773
847 3 2 5 5 741 742 775 774
848 3 2 5 5 742 743 776 775
849 3 2 5 5 743 744 777 776
850 3 2 5 5 744 745 778 777
851 3 2 5 5 745 746 779 778
852 3 2 5 5 746 747 780 779
853 3 2 5 5 747 748 781 780
854 3 2 5 5 748 749 782 781
855 3 2 5 5 749 750 783 782
856 3 2 5 5 750 751 784 783
857 3 2 5 5 751 752 785 784
858 3 2 5 5 752 753 786 785
859 3 2 5 5 753 754 787 786
860 3 2 5 5 754 755 788 787
861 3 2 5 5 755 756 789 788
862 3 2 5 5 756 757 790 789
863 3 2 5 5 757 758 791 790
864 3 2 5 5 758 759 792 791
865 3 2 5 5 760 761 794 793
866 3 2 5 5 761 762 795 794
867 3 2 5 5 762 763 796 795
868 3 2 5 5 763 764 797 796
869 3 2 5 5 764 765 798 797
870 3 2 5 5 765 766 799 798
871 3 2 5 5 766 767 800 799
872 3 2 5 5 767 768 801 800
873 3 2 5 5 768 769 802 801
874 3 2 5 5 769 770 803 802
875 3 2 5 5 770 771 804 803
876 3 2 5 5 771 772 805 804
877 3 2 5 5 772 773 806 805
878 3 2 5 5 773 774 807 806
879 3 2 5 5 774 775 808 807
880 3 2 5 5 775 776 809 808
881 3 2 5 5 776 777 810 809
882 3 2 5 5 777 778 811 810
883 3 2 5 5 778 779 812 811
884 3 2 5 5 779 780 813 812
885 3 2 5 5 780 781 814 813
886 3 2 5 5 781 782 815 814
887 3 2 5 5 782 783 816 815
888 3 2 5 5 783 784 817 816
889 3 2 5 5 784 785 818 817
890 3 2 5 5 785 786 819 818
891 3 2 5 5 786 787 820 819
892 3 2 5 5 787 788 821 820
893 3 2 5 5 788 789 822 821
894 3 2 5 5 789 790 823 822
895 3 2 5 5 790 791 824 823
896 3 2 5 5 791 792 825 824
897 3 2 5 5 793 794 827 826
898 3 2 5 5 794 795 828 827
899 3 2 5 5 795 796 829 828
900 3 2 5 5 796 797 830 829
901 3 2 5 5 797 798 831 830
902 3 2 5 5 798 799 832 831
903 3 2 5 5 799 800 833 832
904 3 2 5 5 800 801 834 833
905 3 2 5 5 801 802 835 834
906 3 2 5 5 802 803 836 835
907 3 2 5 5 803 804 837 836
908 3 2 5 5 804 805 838 837
909 3 2 5 5 805 806 839 838
910 3 2 5 5 806 807 840 839
911 3 2 5 5 807 808 841 840
912 3 2 5 5 808 809 842 841
913 3 2 5 5 809 810 843 842
914 3 2 5 5 810 811 844 843
915 3 2 5 5 811 812 845 844
916 3 2 5 5 812 813 846 845
917 3 2 5 5 813 814 847 846
918 3 2 5 5 814 815 848 847
919 3 2 5 5 815 816 849 848
920 3 2 5 5 816 817 850 849
921 3 2 5 5 817 818 851 850
922 3 2 5 5 818 819 852 851
923 3 2 5 5 819 820 853 852
924 3 2 5 5 820 821 854 853
925 3 2 5 5 821 822 855 854
926 3 2 5 5 822 823 856 855
927 3 2 5 5 823 824 857 856
928 3 2 5 5 824 825 858 857
929 3 2 5 5 826 827 860 859
930 3 2 5 5 827 828 861 860
931 3 2 5 5 828 829 862 861
932 3 2 5 5 829 830 863 862
933 3 2 5 5 830 831 864 863
934 3 2 5 5 831 832 865 864
935 3 2 5 5 832 833 866 865
936 3 2 5 5 833 834 867 866
937 3 2 5 5 834 835 868 867
938 3 2 5 5 835 836 869 868
939 3 2 5 5 836 837 870 869
940 3 2 5 5 837 838 871 870
941 3 2 5 5 838 839 872 871
942 3 2 5 5 839 840 873 872
943 3 2 5 5 840 841 874 873
944 3 2 5 5 841 842 875 874
945 3 2 5 5 842 843 876 875
946 3 2 5 5 843 844 877 876
947 3 2 5 5 844 845 878 877
948 3 2 5 5 845 846 879 878
949 3 2 5 5 846 847 880 879
950 3 2 5 5 847 848 881 880
951 3 2 5 5 848 849 882 881
952 3 2 5 5 849 850 883 882
953 3 2 5 5 850 851 884 883
954 3 2 5 5 851 852 885 884
955 3 2 5 5 852 853 886 885
956 3 2 5 5 853 854 887 886
957 3 2 5 5 854 855 888 887
958 3 2 5 5 855 856 889 888
959 3 2 5 5 856 857 890 889
960 3 2 5 5 857 858 891 890
961 3 2 5 5 859 860 893 892
962 3 2 5 5 860 861 894 893
963 3 2 5 5 861 862 895 894
964 3 2 5 5 862 863 896 895
965 3 2 5 5 863 864 897 896
966 3 2 5 5 864 865 898 897
967 3 2 5 5 865 866 899 898
968 3 2 5 5 866 867 900 899
969 3 2 5 5 867 868 901 900
970 3 2 5 5 868 869 902 901
971 3 2 5 5 869 870 903 902
972 3 2 5 5 870 871 904 903
973 3 2 5 5 871 872 905 904
974 3 2 5 5 872 873 906 905
975 3 2 5 5 873 874 907 906
976 3 2 5 5 874 875 908 907
977 3 2 5 5 875 876 909 908
978 3 2 5 5 876 877 910 909
979 3 2 5 5 877 878 911 910
980 3 2 5 5 878 879 912 911
981 3 2 5 5 879 880 913 912
982 3 2 5 5 880 881 914 913
983 3 2 5 5 881 882 915 914
984 3 2 5 5 882 883 916 915
985 3 2 5 5 883 884 917 916
986 3 2 5 5 884 885 918 917
987 3 2 5 5 885 886 919 918
988 3 2 5 5 886 887 920 919
989 3 2 5 5 887 888 921 920
990 3 2 5 5 888 889 922 921
991 3 2 5 5 889 890 923 922
992 3 2 5 5 890 891 924 923
993 3 2 5 5 892 893 926 925
994 3 2 5 5 893 894 927 926
995 3 2 5 5 894 895 928 927
996 3 2 5 5 895 896 929 928
997 3 2 5 5 896 897 930 929
998 3 2 5 5 897 898 931 930
999 3 2 5 5 898 899 932 931
1000 3 2 5 5 899 900 933 932
1001 3 2 5 5 900 901 934 933
1002 3 2 5 5 901 902 935 934
1003 3 2 5 5 902 903 936 935
1004 3 2 5 5 903 904 937 936
1005 3 2 5 5 904 905 938 937
1006 3 2 5 5 905 906 939 938
1007 3 2 5 5 906 907 940 939
1008 3 2 5 5 907 908 941 940
1009 3 2 5 5 908 909 942 941
1010 3 2 5 5 909 910 943 942
1011 3 2 5 5 910 911 944 943
1012 3 2 5 5 911 912 945 944
1013 3 2 5 5 912 913 946 945
1014 3 2 5 5 913 914 947 946
1015 3 2 5 5 914 915 948 947
1016 3 2 5 5 915 916 949 948
1017 3 2 5 5 916 917 950 949
1018 3 2 5 5 917 918 951 950
1019 3 2 5 5 918 919 952 951
1020 3 2 5 5 919 920 953 952
1021 3 2 5 5 920 921 954 953
1022 3 2 5 5 921 922 955 954
1023 3 2 5 5 922 923 956 955
1024 3 2 5 5 923 924 957 956
1025 3 2 5 5 925 926 959 958
1026 3 2 5 5 926 927 960 959
1027 3 2 5 5 927 928 961 960
1028 3 2 5 5 928 929 962 961
1029 3 2 5 5 929 930 963 962
1030 3 2 5 5 930 931 964 963
1031 3 2 5 5 931 932 965 964
1032 3 2 5 5 932 933 966 965
1033 3 2 5 5 933 934 967 966
1034 3 2 5 5 934 935 968 967
1035 3 2 5 5 935 936 969 968
1036 3 2 5 5 936 937 970 969
1037 3 2 5 5 937 938 971 970
1038 3 2 5 5 938 939 972 971
1039 3 2 5 5 939 940 973 972
1040 3 2 5 5 940 941 974 973
1041 3 2 5 5 941 942 975 974
1042 3 2 5 5 942 943 976 975
1043 3 2 5 5 943 944 977 976
1044 3 2 5 5 944 945 978 977
1045 3 2 5 5 945 946 979 978
1046 3 2 5 5 946 947 980 979
1047 3 2 5 5 947 948 981 980
1048 3 2 5 5 948 949 982 981
1049 3 2 5 5 949 950 983 982
1050 3 2 5 5 950 951 984 983
1051 3 2 5 5 951 952 985 984
1052 3 2 5 5 952 953 986 985
1053 3 2 5 5 953 954 987 986
1054 3 2 5 5 954 955 988 987
1055 3 2 5 5 955 956 989 988
1056 3 2 5 5 956 957 990 989
1057 3 2 5 5 958 959 992 991
1058 3 2 5 5 959 960 993 992
1059 3 2 5 5 960 961 994 993
1060 3 2 5 5 961 962 995 994
1061 3 2 5 5 962 963 996 995
1062 3 2 5 5 963 964 997 996
1063 3 2 5 5 964 965 998 997
1064 3 2 5 5 965 966 999 998
1065 3 2 5 5 966 967 1000 999
1066 3 2 5 5 967 968 1001 1000
1067 3 2 5 5 968 969 1002 1001
1068 3 2 5 5 969 970 1003 1002
1069 3 2 5 5 970 971 1004 1003
1070 3 2 5 5 971 972 1005 1004
1071 3 2 5 5 972 973 1006 1005
1072 3 2 5 5 973 974 1007 1006
1073 3 2 5 5 974 975 1008 1007
1074 3 2 5 5 975 976 1009 1008
1075 3 2 5 5 976 977 1010 1009
1076 3 2 5 5 977 978 1011 1010
1077 3 2 5 5 978 979 1012 1011
1078 3 2 5 5 979 980 1013 1012
1079 3 2 5 5 980 981 1014 1013
1080 3 2 5 5 981 982 1015 1014
1081 3 2 5 5 982 983 1016 1015
1082 3 2 5 5 983 984 1017 1016
1083 3 2 5 5 984 985 1018 1017
1084 3 2 5 5 985 986 1019 1018
1085 3 2 5 5 986 987 1020 1019
1086 3 2 5 5 987 988 1021 1020
1087 3 2 5 5 988 989 1022 1021
1088 3 2 5 5 989 990 1023 1022
1089 3 2 5 5 991 992 1025 1024
1090 3 2 5 5 992 993 1026 1025
1091 3 2 5 5 993 994 1027 1026
1092 3 2 5 5 994 995 1028 1027
1093 3 2 5 5 995 996 1029 1028
1094 3 2 5 5 996 997 1030 1029
1095 3 2 5 5 997 998 1031 1030
1096 3 2 5 5 998 999 1032 1031
1097 3 2 5 5 999 1000 1033 1032
1098 3 2 5 5 1000 1001 1034 1033
1099 3 2 5 5 1001 1002 1035 1034
1100 3 2 5 5 1002 1003 1036 1035
1101 3 2 5 5 1003 1004 1037 1036
1102 3 2 5 5 1004 1005 1038 1037
1103 3 2 5 5 1005 1006 1039 1038
1104 3 2 5 5 1006 1007 1040 1039
1105 3 2 5 5 1007 1008 1041 1040
1106 3 2 5 5 1008 1009 1042 1041
1107 3 2 5 5 1009 1010 1043 1042
1108 3 2 5 5 1010 1011 1044 1043
1109 3 2 5 5 1011 1012 1045 1044
1110 3 2 5 5 1012 1013 1046 1045
1111 3 2 5 5 1013 1014 1047 1046
1112 3 2 5 5 1014 1015 1048 1047
1113 3 2 5 5 1015 1016 1049 1048
1114 3 2 5 5 1016 1017 1050 1049
1115 3 2 5 5 1017 1018 1051 1050
1116 3 2 5 5 1018 1019 1052 1051
1117 3 2 5 5 1019 1020 1053 1052
1118 3 2 5 5 1020 1021 1054 1053
1119 3 2 5 5 1021 1022 1055 1054
1120 3 2 5 5 1022 1023 1056 1055
1121 3 2 5 5 1024 1025 1058 1057
1122 3 2 5 5 1025 1026 1059 1058
1123 3 2 5 5 1026 1027 1060 1059
1124 3 2 5 5 1027 1028 1061 1060
1125 3 2 5 5 1028 1029 1062 1061
1126 3 2 5 5 1029 1030 1063 1062
1127 3 2 5 5 1030 1031 1064 1063
1128 3 2 5 5 1031 1032 1065 1064
1129 3 2 5 5 1032 1033 1066 1065
1130 3 2 5 5 1033 1034 1067 1066
1131 3 2 5 5 1034 1035 1068 1067
1132 3 2 5 5 1035 1036 1069 1068
1133 3 2 5 5 1036 1037 1070 1069
1134 3 2 5 5 1037 1038 1071 1070
1135 3 2 5 5 1038 1039 1072 1071
1136 3 2 5 5 1039 1040 1073 1072
1137 3 2 5 5 1040 1041 1074 1073
1138 3 2 5 5 1041 1042 1075 1074
1139 3 2 5 5 1042 1043 1076 1075
1140 3 2 5 5 1043 1044 1077 1076
1141 3 2 5 5 1044 1045 1078 1077
1142 3 2 5 5 1045 1046 1079 1078
1143 3 2 5 5 1046 1047 1080 1079
1144 3 2 5 5 1047 1048 1081 1080
1145 3 2 5 5 1048 1049 1082 1081
1146 3 2 5 5 1049 1050 1083 1082
1147 3 2 5 5 1050 1051 1084 1083
1148 3 2 5 5 1051 1052 1085 1084
1149 3 2 5 5 1052 1053 1086 1085
1150 3 2 5 5 1053 1054 1087 1086
1151 3 2 5 5 1054 1055 1088 1087
1152 3 2 5 5 1055 1056 1089 1088
$EndElements
